<svg width="270" height="269" viewBox="0 0 270 269" fill="none" xmlns="http://www.w3.org/2000/svg">
<path d="M134.877 0L144.956 68.383L174.745 6.00905L164.22 74.325L211.069 23.5022L180.876 85.6808L240.624 50.9251L193.445 101.442L260.783 85.8411L200.81 120.207L269.754 125.147L202.316 140.309L266.741 165.352L197.83 159.963L252.011 202.883L187.751 177.421L226.874 234.405L172.973 191.132L193.562 257.117L154.811 199.878L155.036 269L134.877 202.883L114.718 269L114.944 199.878L76.1921 257.117L96.7813 191.132L42.8802 234.405L82.0038 177.421L17.7426 202.883L71.9243 159.963L3.01289 165.352L67.4386 140.309L0 125.147L68.9451 120.207L8.97144 85.8411L76.3099 101.442L29.1303 50.9251L88.8783 85.6808L58.6851 23.5022L105.535 74.325L95.0099 6.00905L124.798 68.383L134.877 0Z" fill="#C3D5F0"/>
</svg>
