<svg id="Grupo_633" data-name="Grupo 633" xmlns="http://www.w3.org/2000/svg" width="292" height="87.368" viewBox="0 0 292 87.368">
  <ellipse id="Elipse_29" data-name="Elipse 29" cx="31.777" cy="34.091" rx="31.777" ry="34.091" transform="translate(228.446 19.186)"/>
  <path id="Caminho_9050" data-name="Caminho 9050" d="M544.828,80.279h-7.482a.768.768,0,0,1-.112-.4,3.311,3.311,0,0,1,0-1c.3-.732.924-1.32.956-2.178a3.242,3.242,0,1,0-6.479-.238c-.033.947.63,1.619.97,2.43a3.977,3.977,0,0,1,0,1.194.332.332,0,0,1-.07.187h-7.375a2.682,2.682,0,0,0-2.673,2.673v7.235a.709.709,0,0,1-.653.429,3.194,3.194,0,0,1-.933,0c-.681-.285-1.232-.863-2.029-.891a3.022,3.022,0,0,0-.219,6.041c.886.033,1.511-.588,2.267-.9a3.768,3.768,0,0,1,1.115,0c.145,0,.354.177.452.424v7.254a2.682,2.682,0,0,0,2.673,2.673h6.89a1.844,1.844,0,0,0,.55-.676,3.975,3.975,0,0,0,0-1.194c-.341-.812-1.008-1.483-.97-2.43a3.242,3.242,0,0,1,6.479.238c-.033.854-.653,1.446-.956,2.178a3.306,3.306,0,0,0,0,1,1.785,1.785,0,0,0,.536.886h7.058a2.682,2.682,0,0,0,2.673-2.673V82.952A2.678,2.678,0,0,0,544.828,80.279Z" transform="translate(-275.196 -39.131)"/>
  <path id="Caminho_9051" data-name="Caminho 9051" d="M331.47,75.266c-2.589-1.9-6.251-3.349-11.2-4.427l-10.291-2.258c-4.847-1.054-6.512-1.7-7.109-2.015a2.165,2.165,0,0,1-1.437-2.15,3.058,3.058,0,0,1,1.675-2.85,12.069,12.069,0,0,1,6.256-1.357,14.507,14.507,0,0,1,6.074,1.1,5.308,5.308,0,0,1,3.247,4.893l.159,2.36h17.12l-.1-2.6c-.243-6.568-2.948-11.676-8.038-15.184a30.4,30.4,0,0,0-17.614-5.061c-8.14,0-14.48,1.847-18.837,5.486a17.619,17.619,0,0,0-6.694,14.032c0,6.2,2.388,10.869,7.091,13.859,2.65,1.707,7.165,3.2,13.817,4.567l6.358,1.3a25.983,25.983,0,0,1,7.277,2.23,2.144,2.144,0,0,1,1.283,2.039c0,1.4-.406,2.967-3.415,3.942a21.316,21.316,0,0,1-6.3.751c-4.068,0-6.881-.83-8.359-2.463a8.537,8.537,0,0,1-1.628-4.32l-.364-2.622-16.667-.028-.047,3a18.076,18.076,0,0,0,7.664,15.338c4.889,3.583,11.578,5.4,19.882,5.4,8.182,0,14.68-1.861,19.3-5.537a17.634,17.634,0,0,0,7.156-14.316C337.74,82.73,335.631,78.322,331.47,75.266Z" transform="translate(-151.375 -24.387)"/>
  <path id="Caminho_9052" data-name="Caminho 9052" d="M419.175,45.84h17.568v62.779H425.366s.079-19.5.079-20.693l-11.074,20.693H402.5L391.508,87.926c0,1.194.079,20.693.079,20.693H380.21V45.84h17.768l10.636,13.691Z" transform="translate(-202.848 -24.456)"/>
  <path id="Caminho_9053" data-name="Caminho 9053" d="M219.1,45.84V56.956H208.412v51.663H196.391V56.956H179.21V45.84Z" transform="translate(-95.612 -24.456)"/>
  <path id="Caminho_9054" data-name="Caminho 9054" d="M283.706,108.615H271.54V45.84h12.166Z" transform="translate(-144.871 -24.456)"/>
  <path id="Caminho_9055" data-name="Caminho 9055" d="M125.494,45.84h-10.1a3.241,3.241,0,0,1,.387,1.665c-.033.863-.658,1.455-.961,2.192a3.371,3.371,0,0,0,0,1.008.735.735,0,0,0,.117.4h7.538a2.7,2.7,0,0,1,2.692,2.692V61a.588.588,0,0,1-.131.019,3.37,3.37,0,0,1-1.008,0c-.737-.308-1.334-.933-2.192-.961a3.265,3.265,0,1,0-.238,6.526c.956.037,1.633-.634,2.449-.98a3.6,3.6,0,0,1,1.12-.009V73.54a2.7,2.7,0,0,1-2.692,2.692h-7.6a3.261,3.261,0,0,0,.014,1.068c.345.816,1.017,1.493.98,2.449a3.265,3.265,0,0,1-6.526-.238c.033-.863.658-1.455.961-2.192a3.37,3.37,0,0,0,0-1.008c0-.028-.009-.051-.009-.079H102.73a2.7,2.7,0,0,1-2.692-2.692V65.572a2.375,2.375,0,0,1,.8.037c.816.345,1.493,1.017,2.449.98a3.265,3.265,0,1,0-.238-6.526c-.863.033-1.455.658-2.193.961a2.482,2.482,0,0,1-.821.019V53.8a2.7,2.7,0,0,1,2.692-2.692h7.436a.371.371,0,0,0,.07-.187,4.042,4.042,0,0,0,0-1.2c-.345-.816-1.017-1.493-.98-2.449a3.176,3.176,0,0,1,.392-1.423H90.9V83.662q0,9.81,2.9,15.277,5.437,10.02,20.642,10.015t20.6-10.015q2.9-5.465,2.9-15.277V45.84Z" transform="translate(-48.497 -24.456)"/>
  <path id="Caminho_9056" data-name="Caminho 9056" d="M125.045,42.147a3.264,3.264,0,0,0-2.995,1.721H127.8A3.264,3.264,0,0,0,125.045,42.147Z" transform="translate(-65.116 -22.485)"/>
  <path id="Caminho_9057" data-name="Caminho 9057" d="M15.119,101.366a2.132,2.132,0,0,1,.76.037c.774.326,1.418.961,2.323.928a3.1,3.1,0,0,0-.229-6.19c-.816.028-1.381.62-2.081.914a2.465,2.465,0,0,1-.774.019V90.207a2.558,2.558,0,0,1,2.552-2.552h7.049a.333.333,0,0,0,.065-.177,3.793,3.793,0,0,0,0-1.143c-.327-.774-.961-1.418-.928-2.323a3.1,3.1,0,0,1,6.19.229c-.028.816-.62,1.381-.914,2.081a3.189,3.189,0,0,0,0,.956.73.73,0,0,0,.107.378H36.39a2.558,2.558,0,0,1,2.552,2.552v6.829a.546.546,0,0,1-.121.019,3.185,3.185,0,0,1-.956,0c-.7-.289-1.264-.882-2.081-.914a3.1,3.1,0,0,0-.229,6.19c.9.033,1.549-.6,2.323-.928a3.386,3.386,0,0,1,1.064-.009v7.226H55.512L34.781,45.84H20.922L0,108.615H15.119v-7.249Z" transform="translate(0 -24.456)"/>
  <g id="Grupo_632" data-name="Grupo 632" transform="translate(19.443 0)">
    <path id="Caminho_9058" data-name="Caminho 9058" d="M53.225,9.582h1.39a7.464,7.464,0,0,1-.975,3.2,5.618,5.618,0,0,1-2.192,2.141,6.889,6.889,0,0,1-5.817.2,5.981,5.981,0,0,1-2.108-1.586,7.223,7.223,0,0,1-1.367-2.491,10.086,10.086,0,0,1-.476-3.153,10.111,10.111,0,0,1,.485-3.2,7.493,7.493,0,0,1,1.381-2.514A6.037,6.037,0,0,1,45.692.564,6.77,6.77,0,0,1,48.467,0a5.847,5.847,0,0,1,4.679,1.969,5.136,5.136,0,0,1,1.287,2.874h-1.39a4.608,4.608,0,0,0-.863-1.9,4.277,4.277,0,0,0-1.6-1.273,5.342,5.342,0,0,0-4.324.019,4.773,4.773,0,0,0-1.689,1.357,6.382,6.382,0,0,0-1.087,2.122A9.309,9.309,0,0,0,43.1,7.9a8.808,8.808,0,0,0,.378,2.64,6.288,6.288,0,0,0,1.087,2.095,4.772,4.772,0,0,0,1.675,1.348,4.9,4.9,0,0,0,2.141.462,4.844,4.844,0,0,0,2.384-.569,4.287,4.287,0,0,0,1.651-1.651A6.769,6.769,0,0,0,53.225,9.582Z" transform="translate(-41.68 0)"/>
    <path id="Caminho_9059" data-name="Caminho 9059" d="M174.316.65l5.8,15.016h-1.474l-1.829-4.721h-6.661l-1.787,4.721H166.89L172.749.65h1.567ZM176.439,9.8,173.523,2,170.571,9.8Z" transform="translate(-108.482 -0.347)"/>
    <path id="Caminho_9060" data-name="Caminho 9060" d="M305.674.74V15.714h-1.726L295.379,2.447V15.714H293.97V.74H295.7l8.569,13.206V.74Z" transform="translate(-176.281 -0.395)"/>
    <path id="Caminho_9061" data-name="Caminho 9061" d="M425.206.65,431,15.666h-1.474L427.7,10.945h-6.661l-1.787,4.721H417.78L423.639.65h1.567ZM427.324,9.8,424.413,2,421.461,9.8h5.864Z" transform="translate(-242.336 -0.347)"/>
    <path id="Caminho_9062" data-name="Caminho 9062" d="M554.381,14.487v1.227H544.94V.74h1.413V14.487Z" transform="translate(-310.178 -0.395)"/>
  </g>
  <circle id="Elipse_30" data-name="Elipse 30" cx="2.178" cy="2.178" r="2.178" transform="translate(52.54 5.756)"/>
  <circle id="Elipse_31" data-name="Elipse 31" cx="2.178" cy="2.178" r="2.178" transform="translate(110.692 5.756)"/>
  <circle id="Elipse_32" data-name="Elipse 32" cx="2.178" cy="2.178" r="2.178" transform="translate(170.789 5.756)"/>
  <circle id="Elipse_33" data-name="Elipse 33" cx="2.178" cy="2.178" r="2.178" transform="translate(227.518 5.756)"/>
</svg>
