<svg width="329" height="235" viewBox="0 0 329 235" fill="none" xmlns="http://www.w3.org/2000/svg">
<path d="M328.78 233.717V229.868C328.78 229.159 328.206 228.585 327.497 228.585C326.789 228.585 326.215 229.159 326.215 229.868V233.717C326.215 234.426 326.789 235 327.497 235C328.206 235 328.78 234.426 328.78 233.717Z" fill="#206267"/>
<path d="M328.78 214.366C328.78 215.074 328.206 215.648 327.497 215.648C326.789 215.648 326.215 215.074 326.215 214.366V203.994C326.215 203.286 326.789 202.711 327.497 202.711C328.206 202.711 328.78 203.286 328.78 203.994V214.366ZM328.78 188.385C328.78 189.094 328.206 189.668 327.497 189.668C326.789 189.668 326.215 189.094 326.215 188.385V178.014C326.215 177.305 326.789 176.731 327.497 176.731C328.206 176.731 328.78 177.305 328.78 178.014V188.385ZM328.78 162.405C328.78 163.113 328.206 163.687 327.497 163.687C326.789 163.687 326.215 163.113 326.215 162.405V152.033C326.215 151.325 326.789 150.751 327.497 150.751C328.206 150.751 328.78 151.325 328.78 152.033V162.405ZM328.78 136.424C328.78 137.133 328.206 137.707 327.497 137.707C326.789 137.707 326.215 137.133 326.215 136.424V126.053C326.215 125.344 326.789 124.77 327.497 124.77C328.206 124.77 328.78 125.344 328.78 126.053V136.424ZM328.78 110.551C328.78 111.259 328.206 111.833 327.497 111.833C326.789 111.833 326.215 111.259 326.215 110.551V100.179C326.215 99.4709 326.789 98.8966 327.497 98.8966C328.206 98.8966 328.78 99.4709 328.78 100.179V110.551ZM328.78 84.5703C328.78 85.2787 328.206 85.853 327.497 85.853C326.789 85.853 326.215 85.2787 326.215 84.5703V74.1989C326.215 73.4905 326.789 72.9162 327.497 72.9162C328.206 72.9162 328.78 73.4905 328.78 74.1989V84.5703ZM328.78 58.5899C328.78 59.2983 328.206 59.8725 327.497 59.8725C326.789 59.8725 326.215 59.2983 326.215 58.5899V48.2184C326.215 47.5101 326.789 46.9358 327.497 46.9358C328.206 46.9358 328.78 47.5101 328.78 48.2184V58.5899ZM328.78 32.6095C328.78 33.3179 328.206 33.8921 327.497 33.8921C326.789 33.8921 326.215 33.3179 326.215 32.6095V22.238C326.215 21.5296 326.789 20.9553 327.497 20.9553C328.206 20.9553 328.78 21.5296 328.78 22.238V32.6095Z" fill="#206267"/>
<path d="M328.78 6.73603C328.78 7.4444 328.205 8.01865 327.497 8.01865C326.789 8.01865 326.214 7.4444 326.214 6.73603V5.1314C326.214 4.06884 325.353 3.20746 324.291 3.20746H323.97C323.085 3.20746 322.367 2.48945 322.367 1.60373C322.367 0.718014 323.085 0 323.97 0H325.573C327.344 0 328.78 1.43563 328.78 3.20656V6.73603Z" fill="#206267"/>
<path d="M312.191 1.60373C312.191 2.48945 311.473 3.20746 310.587 3.20746H303.534C302.648 3.20746 301.93 2.48945 301.93 1.60373C301.93 0.718014 302.648 0 303.534 0H310.587C311.473 0 312.191 0.718014 312.191 1.60373ZM291.669 1.60373C291.669 2.48945 290.951 3.20746 290.065 3.20746H283.012C282.126 3.20746 281.408 2.48945 281.408 1.60373C281.408 0.718014 282.126 0 283.012 0H290.065C290.951 0 291.669 0.718014 291.669 1.60373ZM271.233 1.60373C271.233 2.48945 270.515 3.20746 269.629 3.20746H262.575C261.69 3.20746 260.972 2.48945 260.972 1.60373C260.972 0.718014 261.69 0 262.575 0H269.629C270.515 0 271.233 0.718014 271.233 1.60373ZM250.796 1.60373C250.796 2.48945 250.078 3.20746 249.192 3.20746H242.139C241.253 3.20746 240.535 2.48945 240.535 1.60373C240.535 0.718014 241.253 0 242.139 0H249.192C250.078 0 250.796 0.718014 250.796 1.60373ZM230.274 1.60373C230.274 2.48945 229.556 3.20746 228.67 3.20746H221.617C220.731 3.20746 220.013 2.48945 220.013 1.60373C220.013 0.718014 220.731 0 221.617 0H228.67C229.556 0 230.274 0.718014 230.274 1.60373ZM209.838 1.60373C209.838 2.48945 209.12 3.20746 208.234 3.20746H201.18C200.295 3.20746 199.577 2.48945 199.577 1.60373C199.577 0.718014 200.295 0 201.18 0H208.234C209.12 0 209.838 0.718014 209.838 1.60373ZM189.316 1.60373C189.316 2.48945 188.598 3.20746 187.712 3.20746H180.658C179.773 3.20746 179.055 2.48945 179.055 1.60373C179.055 0.718014 179.773 0 180.658 0H187.712C188.598 0 189.316 0.718014 189.316 1.60373ZM168.879 1.60373C168.879 2.48945 168.161 3.20746 167.275 3.20746H160.222C159.336 3.20746 158.618 2.48945 158.618 1.60373C158.618 0.718014 159.336 0 160.222 0H167.275C168.161 0 168.879 0.718014 168.879 1.60373ZM148.443 1.60373C148.443 2.48945 147.725 3.20746 146.839 3.20746H139.785C138.9 3.20746 138.182 2.48945 138.182 1.60373C138.182 0.718014 138.9 0 139.785 0H146.839C147.725 0 148.443 0.718014 148.443 1.60373ZM127.921 1.60373C127.921 2.48945 127.203 3.20746 126.317 3.20746H119.263C118.378 3.20746 117.66 2.48945 117.66 1.60373C117.66 0.718014 118.378 0 119.263 0H126.317C127.203 0 127.921 0.718014 127.921 1.60373ZM107.484 1.60373C107.484 2.48945 106.766 3.20746 105.88 3.20746H98.8268C97.941 3.20746 97.223 2.48945 97.223 1.60373C97.223 0.718014 97.941 0 98.8268 0H105.88C106.766 0 107.484 0.718014 107.484 1.60373ZM87.0475 1.60373C87.0475 2.48945 86.3295 3.20746 85.4438 3.20746H78.3903C77.5045 3.20746 76.7865 2.48945 76.7865 1.60373C76.7865 0.718014 77.5045 0 78.3903 0H85.4438C86.3295 0 87.0475 0.718014 87.0475 1.60373ZM66.5255 1.60373C66.5255 2.48945 65.8075 3.20746 64.9218 3.20746H57.8682C56.9825 3.20746 56.2645 2.48945 56.2645 1.60373C56.2645 0.718014 56.9825 0 57.8683 0H64.9218C65.8075 0 66.5255 0.718014 66.5255 1.60373ZM46.089 1.60373C46.089 2.48945 45.371 3.20746 44.4853 3.20746H37.4317C36.546 3.20746 35.828 2.48945 35.828 1.60373C35.828 0.718014 36.546 0 37.4317 0H44.4853C45.371 0 46.089 0.718014 46.089 1.60373ZM25.567 3.20746H16.9952C16.1095 3.20746 15.3915 2.48945 15.3915 1.60373C15.3915 0.718014 16.1095 0 16.9952 0H24.0488C24.9345 0 25.6525 0.718015 25.6525 1.60373V3.12195C25.6525 3.16918 25.6142 3.20746 25.567 3.20746Z" fill="#206267"/>
<path d="M3.52677 0H1.60373C0.718015 0 0 0.718014 0 1.60373C0 2.48945 0.718013 3.20746 1.60373 3.20746H3.52677C4.41249 3.20746 5.1305 2.48945 5.1305 1.60373C5.1305 0.718014 4.41249 0 3.52677 0Z" fill="#206267"/>
</svg>
