<svg width="25" height="24" viewBox="0 0 25 24" fill="none" xmlns="http://www.w3.org/2000/svg">
<path d="M21.2854 1.87098C16.0074 1.18083 9.11086 10.3361 2.6781 7.55666C2.42724 6.976 2.18543 6.39239 1.93457 5.81284C9.51604 7.04347 12.9613 -1.10421 20.5423 0.127159C20.7941 0.706713 21.0337 1.29069 21.2854 1.87098Z" fill="#ED4C5C"/>
<path d="M22.028 3.61446C17.5698 2.87047 8.41031 11.5959 3.42151 9.30051C3.16936 8.72058 2.93013 8.1366 2.67798 7.55668C10.2594 8.78731 13.7043 0.639263 21.2853 1.871C21.537 2.45056 21.7767 3.03453 22.028 3.61446Z" fill="#FF8736"/>
<path d="M22.7716 5.35864C18.4319 4.69834 10.3819 14.1017 4.16468 11.0443C3.91252 10.4644 3.67244 9.88042 3.42114 9.30049C11.0022 10.5315 14.4483 2.38418 22.028 3.61481C22.2802 4.1951 22.5203 4.77871 22.7716 5.35864Z" fill="#FFCE31"/>
<path d="M23.5157 7.10247C19.3299 6.54172 10.1165 16.619 4.90747 12.7882C4.65574 12.2086 4.41652 11.6243 4.16479 11.0443C11.7445 12.2761 15.1902 4.12728 22.7717 5.35865C23.023 5.93857 23.2639 6.52218 23.5157 7.10247Z" fill="#83BF4F"/>
<path d="M24.2578 8.84632C19.4915 8.17017 11.0324 18.6007 5.65052 14.5324C5.39879 13.9521 5.15741 13.3688 4.90698 12.7885C12.488 14.0192 15.9337 5.87186 23.5152 7.10286C23.7665 7.68278 24.007 8.26603 24.2578 8.84632Z" fill="#275FD9"/>
<path d="M25 10.5905C17.4211 9.35909 13.9745 17.5071 6.39393 16.2758C6.1422 15.6962 5.90168 15.1122 5.65039 14.5323C13.2314 15.7629 16.6767 7.61526 24.2577 8.84626C24.509 9.42692 24.75 10.0105 25 10.5905Z" fill="#9028E0"/>
<path d="M0.934483 5.71588C1.45058 5.71588 1.86897 5.35803 1.86897 4.91659C1.86897 4.47516 1.45058 4.11731 0.934483 4.11731C0.418382 4.11731 0 4.47516 0 4.91659C0 5.35803 0.418382 5.71588 0.934483 5.71588Z" fill="#C0CFDC"/>
<path d="M1.74139 5.34204L0.637939 5.68454L8.26984 23.5951H9.51811L1.74139 5.34204Z" fill="#C0CFDC"/>
<path d="M0.296631 5.752L2.05353 5.20636L2.21301 5.5813L0.455683 6.12694L0.296631 5.752Z" fill="#C0CFDC"/>
</svg>
