<svg width="311" height="477" viewBox="0 0 311 477" fill="none" xmlns="http://www.w3.org/2000/svg">
<path d="M221.858 19.1362L256.203 39.174L290.548 19.1362" stroke="#186D5C" stroke-width="2" stroke-miterlimit="10" stroke-linecap="round" stroke-linejoin="round"/>
<path d="M84.5993 19.036L118.944 39.0738L153.289 19.1362L187.513 39.174" stroke="#186D5C" stroke-width="2" stroke-miterlimit="10" stroke-linecap="round" stroke-linejoin="round"/>
<path d="M16.0305 19.036L50.2545 39.0738" stroke="#186D5C" stroke-width="2" stroke-miterlimit="10" stroke-linecap="round" stroke-linejoin="round"/>
<path d="M187.513 21.14L221.858 1.10218L256.203 21.14L290.548 1.10218" stroke="#206267" stroke-width="2" stroke-miterlimit="10" stroke-linecap="round" stroke-linejoin="round"/>
<path d="M16.0305 1.00201L50.3754 21.0398L84.5995 1.00201L118.944 21.0398L153.289 1.10221" stroke="#206267" stroke-width="2" stroke-miterlimit="10" stroke-linecap="round" stroke-linejoin="round"/>
<path d="M291.55 307.019L271.512 341.364L291.55 375.709" stroke="#186D5C" stroke-width="2" stroke-miterlimit="10" stroke-linecap="round" stroke-linejoin="round"/>
<path d="M291.65 169.76L271.613 204.105L291.55 238.45L271.512 272.674" stroke="#186D5C" stroke-width="2" stroke-miterlimit="10" stroke-linecap="round" stroke-linejoin="round"/>
<path d="M291.65 101.191L271.613 135.415" stroke="#186D5C" stroke-width="2" stroke-miterlimit="10" stroke-linecap="round" stroke-linejoin="round"/>
<path d="M289.546 272.674L309.584 307.019L289.546 341.364L309.584 375.709" stroke="#206267" stroke-width="2" stroke-miterlimit="10" stroke-linecap="round" stroke-linejoin="round"/>
<path d="M309.684 101.191L289.647 135.536L309.684 169.76L289.647 204.105L309.584 238.45" stroke="#206267" stroke-width="2" stroke-miterlimit="10" stroke-linecap="round" stroke-linejoin="round"/>
<path d="M19.1364 169.881L39.1742 135.536L19.1364 101.191" stroke="#186D5C" stroke-width="2" stroke-miterlimit="10" stroke-linecap="round" stroke-linejoin="round"/>
<path d="M19.0362 307.14L39.0739 272.795L19.1363 238.45L39.1741 204.226" stroke="#186D5C" stroke-width="2" stroke-miterlimit="10" stroke-linecap="round" stroke-linejoin="round"/>
<path d="M19.0362 375.709L39.0739 341.485" stroke="#186D5C" stroke-width="2" stroke-miterlimit="10" stroke-linecap="round" stroke-linejoin="round"/>
<path d="M21.1402 204.226L1.10242 169.881L21.1402 135.536L1.10242 101.191" stroke="#206267" stroke-width="2" stroke-miterlimit="10" stroke-linecap="round" stroke-linejoin="round"/>
<path d="M1.00213 375.709L21.0399 341.364L1.00213 307.14L21.0399 272.795L1.10233 238.45" stroke="#206267" stroke-width="2" stroke-miterlimit="10" stroke-linecap="round" stroke-linejoin="round"/>
<path d="M221.858 455.96L256.203 475.998L290.548 455.96" stroke="#186D5C" stroke-width="2" stroke-miterlimit="10" stroke-linecap="round" stroke-linejoin="round"/>
<path d="M84.5993 455.86L118.944 475.898L153.289 455.96L187.513 475.998" stroke="#186D5C" stroke-width="2" stroke-miterlimit="10" stroke-linecap="round" stroke-linejoin="round"/>
<path d="M16.0305 455.86L50.2545 475.898" stroke="#186D5C" stroke-width="2" stroke-miterlimit="10" stroke-linecap="round" stroke-linejoin="round"/>
<path d="M187.513 457.964L221.858 437.926L256.203 457.964L290.548 437.926" stroke="#206267" stroke-width="2" stroke-miterlimit="10" stroke-linecap="round" stroke-linejoin="round"/>
<path d="M16.0305 437.826L50.3754 457.864L84.5995 437.826L118.944 457.864L153.289 437.926" stroke="#206267" stroke-width="2" stroke-miterlimit="10" stroke-linecap="round" stroke-linejoin="round"/>
</svg>
