<svg width="239" height="356" viewBox="0 0 239 356" fill="none" xmlns="http://www.w3.org/2000/svg">
<path d="M237.627 353.326L233.981 353.364C233.214 353.372 232.586 352.758 232.578 351.991C232.57 351.224 233.185 350.596 233.951 350.588L237.597 350.55C238.364 350.542 238.992 351.156 239 351.923C239.008 352.69 238.393 353.318 237.627 353.326Z" fill="#206267"/>
<path d="M218.253 353.531C219.02 353.523 219.635 352.895 219.627 352.128C219.619 351.362 218.991 350.747 218.224 350.755L208.049 350.863C207.282 350.871 206.667 351.499 206.676 352.265C206.684 353.032 207.312 353.647 208.078 353.639L218.253 353.531ZM192.244 353.806C193.011 353.798 193.625 353.17 193.617 352.404C193.609 351.637 192.981 351.022 192.215 351.03L182.039 351.138C181.273 351.146 180.658 351.774 180.666 352.541C180.674 353.307 181.302 353.922 182.069 353.914L192.244 353.806ZM166.235 354.082C167.001 354.074 167.616 353.446 167.608 352.679C167.6 351.913 166.972 351.298 166.205 351.306L156.03 351.414C155.263 351.422 154.649 352.05 154.657 352.816C154.665 353.583 155.293 354.198 156.059 354.19L166.235 354.082ZM140.225 354.357C140.992 354.349 141.607 353.721 141.598 352.955C141.59 352.188 140.962 351.573 140.196 351.581L130.021 351.689C129.254 351.697 128.639 352.325 128.647 353.092C128.655 353.859 129.283 354.473 130.05 354.465L140.225 354.357ZM114.323 354.632C115.089 354.624 115.704 353.996 115.696 353.229C115.688 352.463 115.06 351.848 114.293 351.856L104.118 351.964C103.352 351.972 102.737 352.6 102.745 353.366C102.753 354.133 103.381 354.748 104.148 354.74L114.323 354.632ZM88.3133 354.907C89.0799 354.899 89.6947 354.271 89.6866 353.505C89.6784 352.738 89.0504 352.123 88.2839 352.131L78.1087 352.239C77.3421 352.247 76.7273 352.875 76.7354 353.642C76.7435 354.408 77.3715 355.023 78.1381 355.015L88.3133 354.907ZM62.3039 355.183C63.0704 355.175 63.6853 354.547 63.6771 353.78C63.669 353.014 63.041 352.399 62.2745 352.407L52.0992 352.515C51.3327 352.523 50.7179 353.151 50.726 353.917C50.7341 354.684 51.3621 355.299 52.1287 355.291L62.3039 355.183ZM36.2944 355.458C37.061 355.45 37.6758 354.822 37.6677 354.056C37.6596 353.289 37.0316 352.674 36.265 352.683L26.0898 352.79C25.3232 352.798 24.7084 353.426 24.7165 354.193C24.7246 354.96 25.3526 355.574 26.1192 355.566L36.2944 355.458Z" fill="#206267"/>
<path d="M10.392 355.733C11.1585 355.725 11.7734 355.097 11.7652 354.33C11.7571 353.564 11.1291 352.949 10.3626 352.957L9.01595 352.971C7.86611 352.983 6.9241 352.061 6.91192 350.911L6.90687 350.435C6.89748 349.548 6.17105 348.837 5.28434 348.846C4.39764 348.856 3.68644 349.582 3.69583 350.469L3.71558 352.333C3.73588 354.25 5.30589 355.787 7.2223 355.767L10.392 355.733Z" fill="#206267"/>
<path d="M5.16777 337.835C6.05448 337.825 6.76568 337.099 6.75628 336.212L6.67267 328.32C6.66327 327.433 5.93684 326.722 5.05014 326.731C4.16343 326.74 3.45223 327.467 3.46163 328.354L3.54524 336.246C3.55463 337.133 4.28107 337.844 5.16777 337.835ZM4.93251 315.627C5.81921 315.618 6.53041 314.891 6.52102 314.005L6.4374 306.112C6.42801 305.225 5.70158 304.514 4.81487 304.523C3.92817 304.533 3.21697 305.259 3.22636 306.146L3.30998 314.039C3.31937 314.925 4.0458 315.637 4.93251 315.627ZM4.69822 293.512C5.58493 293.503 6.29613 292.776 6.28674 291.889L6.20312 283.997C6.19373 283.11 5.4673 282.399 4.58059 282.408C3.69389 282.418 2.98269 283.144 2.99208 284.031L3.07569 291.923C3.08509 292.81 3.81152 293.521 4.69822 293.512ZM4.46394 271.397C5.35064 271.387 6.06185 270.661 6.05245 269.774L5.96884 261.881C5.95944 260.995 5.23301 260.284 4.34631 260.293C3.4596 260.302 2.7484 261.029 2.7578 261.915L2.84141 269.808C2.8508 270.695 3.57723 271.406 4.46394 271.397ZM4.22868 249.189C5.11538 249.18 5.82658 248.453 5.81719 247.567L5.73357 239.674C5.72418 238.787 4.99775 238.076 4.11104 238.085C3.22434 238.095 2.51314 238.821 2.52253 239.708L2.60615 247.601C2.61554 248.487 3.34197 249.198 4.22868 249.189ZM3.99439 227.074C4.8811 227.065 5.5923 226.338 5.5829 225.451L5.49929 217.559C5.4899 216.672 4.76347 215.961 3.87676 215.97C2.99006 215.979 2.27885 216.706 2.28825 217.593L2.37186 225.485C2.38126 226.372 3.10769 227.083 3.99439 227.074ZM3.75913 204.866C4.64583 204.857 5.35703 204.13 5.34764 203.244L5.26403 195.351C5.25463 194.464 4.5282 193.753 3.6415 193.762C2.75479 193.772 2.04359 194.498 2.05298 195.385L2.1366 203.278C2.14599 204.164 2.87242 204.876 3.75913 204.866ZM3.52484 182.751C4.41155 182.742 5.12275 182.015 5.11336 181.128L5.02974 173.236C5.02035 172.349 4.29392 171.638 3.40721 171.647C2.52051 171.657 1.80931 172.383 1.8187 173.27L1.90232 181.163C1.91171 182.049 2.63814 182.76 3.52484 182.751ZM3.29056 160.636C4.17727 160.626 4.88847 159.9 4.87907 159.013L4.79546 151.121C4.78607 150.234 4.05963 149.523 3.17293 149.532C2.28622 149.541 1.57502 150.268 1.58442 151.155L1.66803 159.047C1.67743 159.934 2.40386 160.645 3.29056 160.636ZM3.0553 138.428C3.942 138.419 4.6532 137.692 4.64381 136.806L4.56019 128.913C4.5508 128.026 3.82437 127.315 2.93767 127.324C2.05096 127.334 1.33976 128.06 1.34915 128.947L1.43277 136.84C1.44216 137.726 2.16859 138.438 3.0553 138.428ZM2.82101 116.313C3.70772 116.304 4.41892 115.577 4.40953 114.69L4.32591 106.798C4.31652 105.911 3.59009 105.2 2.70338 105.209C1.81668 105.218 1.10548 105.945 1.11487 106.832L1.19848 114.724C1.20788 115.611 1.93431 116.322 2.82101 116.313ZM2.58673 94.1978C3.47344 94.1884 4.18464 93.462 4.17524 92.5752L4.09163 84.6824C4.08223 83.7957 3.3558 83.0845 2.4691 83.0939C1.58239 83.1033 0.871193 83.8297 0.880586 84.7164L0.964201 92.6093C0.973595 93.496 1.70003 94.2072 2.58673 94.1978ZM2.35147 71.9901C3.23817 71.9807 3.94937 71.2542 3.93998 70.3675L3.85636 62.4747C3.84697 61.588 3.12054 60.8768 2.23383 60.8862C1.34713 60.8956 0.635929 61.622 0.645322 62.5087L0.728937 70.4016C0.738331 71.2883 1.46476 71.9995 2.35147 71.9901ZM2.11718 49.8749C3.00389 49.8655 3.71509 49.1391 3.7057 48.2524L3.62208 40.3595C3.61269 39.4728 2.88626 38.7616 1.99955 38.771C1.11285 38.7804 0.401645 39.5069 0.411039 40.3936L0.494654 48.2864C0.504047 49.1731 1.23048 49.8843 2.11718 49.8749ZM3.48744 27.6502L3.3878 18.2444C3.3784 17.3577 2.65197 16.6465 1.76527 16.6558C0.878563 16.6652 0.167362 17.3917 0.176755 18.2784L0.26037 26.1712C0.269764 27.0579 0.996195 27.7691 1.8829 27.7597L3.39589 27.7437C3.44699 27.7431 3.48798 27.7013 3.48744 27.6502Z" fill="#206267"/>
<path d="M0.0249276 3.96353L0.000128733 1.62265C-0.00926483 0.735941 0.701936 0.00950947 1.58864 0.000115905C2.47535 -0.00927766 3.20178 0.701924 3.21117 1.58863L3.23597 3.92951C3.24536 4.81622 2.53416 5.54265 1.64746 5.55204C0.760752 5.56144 0.0343211 4.85024 0.0249276 3.96353Z" fill="#206267"/>
</svg>
