<svg width="151" height="23" viewBox="0 0 151 23" fill="none" xmlns="http://www.w3.org/2000/svg">
<path d="M45.5337 14.0848C45.5337 14.0848 46.6148 12.0092 46.6148 8.89569C46.6148 4.8185 43.7902 0 36.502 0C29.2139 0 26.3893 4.8185 26.3893 8.89569C26.3893 12.0092 27.4703 14.0848 27.4703 14.0848C26.2149 15.6045 25.4477 18.681 26.5288 20.6825C26.9821 21.4979 31.4456 24.389 31.8641 19.2369H41.0702C41.5235 24.352 45.9871 21.4979 46.4055 20.6825C47.5214 18.681 46.7542 15.6045 45.5337 14.0848Z" fill="#DBB471"/>
<path d="M36.5019 1.48267C31.1666 1.48267 27.261 4.4479 27.261 8.15443C27.261 8.15443 28.6907 2.59463 36.5019 2.59463C44.3132 2.59463 45.3942 8.15443 45.3942 8.15443C45.3942 4.4479 41.8373 1.48267 36.5019 1.48267Z" fill="#C28FEF"/>
<path d="M45.3243 14.8262C47.4864 14.8262 47.4864 11.4903 45.3243 11.4903V10.3783C45.3243 10.3783 33.1193 10.0447 30.3296 5.55981C31.027 10.0818 27.6445 11.4903 27.6445 11.4903C25.4824 11.4903 25.4824 14.8262 27.6445 14.8262C27.6445 17.4207 30.1901 21.4979 36.467 21.4979C42.7439 21.4979 45.3243 17.4207 45.3243 14.8262Z" fill="#FED0AC"/>
<path d="M40.8609 15.1968C42.1127 15.1968 43.1275 14.1181 43.1275 12.7875C43.1275 11.457 42.1127 10.3783 40.8609 10.3783C39.6091 10.3783 38.5942 11.457 38.5942 12.7875C38.5942 14.1181 39.6091 15.1968 40.8609 15.1968Z" fill="white"/>
<path d="M32.1429 15.1968C33.3947 15.1968 34.4095 14.1181 34.4095 12.7875C34.4095 11.457 33.3947 10.3783 32.1429 10.3783C30.891 10.3783 29.8762 11.457 29.8762 12.7875C29.8762 14.1181 30.891 15.1968 32.1429 15.1968Z" fill="white"/>
<path d="M40.8607 14.4555C41.7274 14.4555 42.4299 13.7087 42.4299 12.7876C42.4299 11.8664 41.7274 11.1196 40.8607 11.1196C39.9941 11.1196 39.2915 11.8664 39.2915 12.7876C39.2915 13.7087 39.9941 14.4555 40.8607 14.4555Z" fill="#664E27"/>
<path d="M40.8607 13.3435C41.1496 13.3435 41.3838 13.0946 41.3838 12.7875C41.3838 12.4805 41.1496 12.2316 40.8607 12.2316C40.5718 12.2316 40.3376 12.4805 40.3376 12.7875C40.3376 13.0946 40.5718 13.3435 40.8607 13.3435Z" fill="#231F20"/>
<path d="M32.1429 14.4555C33.0096 14.4555 33.7122 13.7087 33.7122 12.7876C33.7122 11.8664 33.0096 11.1196 32.1429 11.1196C31.2763 11.1196 30.5737 11.8664 30.5737 12.7876C30.5737 13.7087 31.2763 14.4555 32.1429 14.4555Z" fill="#664E27"/>
<path d="M32.1429 13.3435C32.4318 13.3435 32.666 13.0946 32.666 12.7875C32.666 12.4805 32.4318 12.2316 32.1429 12.2316C31.8541 12.2316 31.6199 12.4805 31.6199 12.7875C31.6199 13.0946 31.8541 13.3435 32.1429 13.3435Z" fill="#231F20"/>
<path d="M39.3266 17.0871C37.5133 18.4215 35.4907 18.4215 33.6774 17.0871C33.4682 16.9389 33.2589 17.1983 33.3984 17.4578C33.9564 18.4215 35.0723 19.274 36.502 19.274C37.9317 19.274 39.0476 18.4215 39.6056 17.4578C39.7451 17.1983 39.5358 16.9389 39.3266 17.0871Z" fill="#664E27"/>
<path d="M19.5203 14.0848C19.5203 14.0848 20.6013 12.0092 20.6013 8.89569C20.6013 4.8185 17.7767 0 10.4886 0C3.20043 0 0.375838 4.8185 0.375838 8.89569C0.375838 12.0092 1.45686 14.0848 1.45686 14.0848C0.20148 15.6045 -0.565694 18.681 0.515324 20.6825C0.968654 21.4979 5.43221 24.389 5.85067 19.2369H15.0568C15.5101 24.352 19.9736 21.4979 20.3921 20.6825C21.508 18.681 20.7408 15.6045 19.5203 14.0848Z" fill="#594640"/>
<path d="M10.4885 1.48267C5.15317 1.48267 1.24756 4.4479 1.24756 8.15443C1.24756 8.15443 2.67729 2.59463 10.4885 2.59463C18.2997 2.59463 19.3808 8.15443 19.3808 8.15443C19.3808 4.4479 15.8239 1.48267 10.4885 1.48267Z" fill="#C28FEF"/>
<path d="M19.3112 14.8262C21.4732 14.8262 21.4732 11.4903 19.3112 11.4903V10.3783C19.3112 10.3783 7.10612 10.0447 4.3164 5.55981C5.01383 10.0818 1.63129 11.4903 1.63129 11.4903C-0.530743 11.4903 -0.530743 14.8262 1.63129 14.8262C1.63129 17.4207 4.17691 21.4979 10.4538 21.4979C16.7307 21.4979 19.3112 17.4207 19.3112 14.8262Z" fill="#D6A57C"/>
<path d="M14.8477 15.1968C16.0995 15.1968 17.1144 14.1181 17.1144 12.7875C17.1144 11.457 16.0995 10.3783 14.8477 10.3783C13.5959 10.3783 12.5811 11.457 12.5811 12.7875C12.5811 14.1181 13.5959 15.1968 14.8477 15.1968Z" fill="white"/>
<path d="M6.12969 15.1968C7.38152 15.1968 8.39634 14.1181 8.39634 12.7875C8.39634 11.457 7.38152 10.3783 6.12969 10.3783C4.87785 10.3783 3.86304 11.457 3.86304 12.7875C3.86304 14.1181 4.87785 15.1968 6.12969 15.1968Z" fill="white"/>
<path d="M14.8475 14.4555C15.7142 14.4555 16.4168 13.7087 16.4168 12.7876C16.4168 11.8664 15.7142 11.1196 14.8475 11.1196C13.9809 11.1196 13.2783 11.8664 13.2783 12.7876C13.2783 13.7087 13.9809 14.4555 14.8475 14.4555Z" fill="#664E27"/>
<path d="M14.8475 13.3435C15.1364 13.3435 15.3706 13.0946 15.3706 12.7875C15.3706 12.4805 15.1364 12.2316 14.8475 12.2316C14.5587 12.2316 14.3245 12.4805 14.3245 12.7875C14.3245 13.0946 14.5587 13.3435 14.8475 13.3435Z" fill="#231F20"/>
<path d="M6.12977 14.4555C6.99642 14.4555 7.69899 13.7087 7.69899 12.7876C7.69899 11.8664 6.99642 11.1196 6.12977 11.1196C5.26311 11.1196 4.56055 11.8664 4.56055 12.7876C4.56055 13.7087 5.26311 14.4555 6.12977 14.4555Z" fill="#664E27"/>
<path d="M6.12976 13.3435C6.41865 13.3435 6.65284 13.0946 6.65284 12.7875C6.65284 12.4805 6.41865 12.2316 6.12976 12.2316C5.84088 12.2316 5.60669 12.4805 5.60669 12.7875C5.60669 13.0946 5.84088 13.3435 6.12976 13.3435Z" fill="#231F20"/>
<path d="M13.3132 17.0871C11.4998 18.4215 9.4773 18.4215 7.66398 17.0871C7.45475 16.9389 7.24552 17.1983 7.38501 17.4578C7.94295 18.4215 9.05884 19.274 10.4886 19.274C11.9183 19.274 13.0342 18.4215 13.5921 17.4578C13.7316 17.1983 13.5224 16.9389 13.3132 17.0871Z" fill="#664E27"/>
<path d="M71.5203 14.0848C71.5203 14.0848 72.6013 12.0092 72.6013 8.89569C72.6013 4.8185 69.7767 0 62.4886 0C55.2004 0 52.3758 4.8185 52.3758 8.89569C52.3758 12.0092 53.4569 14.0848 53.4569 14.0848C52.2015 15.6045 51.4343 18.681 52.5153 20.6825C52.9687 21.4979 57.4322 24.389 57.8507 19.2369H67.0568C67.5101 24.352 71.9736 21.4979 72.3921 20.6825C73.508 18.681 72.7408 15.6045 71.5203 14.0848Z" fill="#231F20"/>
<path d="M62.4885 1.48267C57.1532 1.48267 53.2476 4.4479 53.2476 8.15443C53.2476 8.15443 54.6773 2.59463 62.4885 2.59463C70.2997 2.59463 71.3808 8.15443 71.3808 8.15443C71.3808 4.4479 67.8239 1.48267 62.4885 1.48267Z" fill="#C28FEF"/>
<path d="M71.3109 14.8262C73.473 14.8262 73.473 11.4903 71.3109 11.4903V10.3783C71.3109 10.3783 59.1059 10.0447 56.3162 5.55981C57.0136 10.0818 53.631 11.4903 53.631 11.4903C51.469 11.4903 51.469 14.8262 53.631 14.8262C53.631 17.4207 56.1767 21.4979 62.4535 21.4979C68.7653 21.4979 71.3109 17.4207 71.3109 14.8262Z" fill="#B47D56"/>
<path d="M66.8475 15.1968C68.0993 15.1968 69.1141 14.1181 69.1141 12.7875C69.1141 11.457 68.0993 10.3783 66.8475 10.3783C65.5956 10.3783 64.5808 11.457 64.5808 12.7875C64.5808 14.1181 65.5956 15.1968 66.8475 15.1968Z" fill="white"/>
<path d="M58.1294 15.1968C59.3813 15.1968 60.3961 14.1181 60.3961 12.7875C60.3961 11.457 59.3813 10.3783 58.1294 10.3783C56.8776 10.3783 55.8628 11.457 55.8628 12.7875C55.8628 14.1181 56.8776 15.1968 58.1294 15.1968Z" fill="white"/>
<path d="M66.8473 14.4555C67.714 14.4555 68.4165 13.7087 68.4165 12.7876C68.4165 11.8664 67.714 11.1196 66.8473 11.1196C65.9806 11.1196 65.2781 11.8664 65.2781 12.7876C65.2781 13.7087 65.9806 14.4555 66.8473 14.4555Z" fill="#664E27"/>
<path d="M66.8473 13.3435C67.1362 13.3435 67.3704 13.0946 67.3704 12.7875C67.3704 12.4805 67.1362 12.2316 66.8473 12.2316C66.5584 12.2316 66.3242 12.4805 66.3242 12.7875C66.3242 13.0946 66.5584 13.3435 66.8473 13.3435Z" fill="#231F20"/>
<path d="M58.1295 14.4555C58.9962 14.4555 59.6987 13.7087 59.6987 12.7876C59.6987 11.8664 58.9962 11.1196 58.1295 11.1196C57.2629 11.1196 56.5603 11.8664 56.5603 12.7876C56.5603 13.7087 57.2629 14.4555 58.1295 14.4555Z" fill="#664E27"/>
<path d="M58.1295 13.3435C58.4184 13.3435 58.6526 13.0946 58.6526 12.7875C58.6526 12.4805 58.4184 12.2316 58.1295 12.2316C57.8406 12.2316 57.6064 12.4805 57.6064 12.7875C57.6064 13.0946 57.8406 13.3435 58.1295 13.3435Z" fill="#231F20"/>
<path d="M65.3132 17.0871C63.4998 18.4215 61.4773 18.4215 59.664 17.0871C59.4548 16.9389 59.2455 17.1983 59.385 17.4578C59.943 18.4215 61.0588 19.274 62.4886 19.274C63.9183 19.274 65.0342 18.4215 65.5921 17.4578C65.7316 17.1983 65.5224 16.9389 65.3132 17.0871Z" fill="#664E27"/>
<path d="M121.52 14.0848C121.52 14.0848 122.601 12.0092 122.601 8.89569C122.601 4.8185 119.777 0 112.489 0C105.2 0 102.376 4.8185 102.376 8.89569C102.376 12.0092 103.457 14.0848 103.457 14.0848C102.201 15.6045 101.434 18.681 102.515 20.6825C102.969 21.4979 107.432 24.389 107.851 19.2369H117.057C117.51 24.352 121.974 21.4979 122.392 20.6825C123.508 18.681 122.741 15.6045 121.52 14.0848Z" fill="#231F20"/>
<path d="M112.489 1.48267C107.153 1.48267 103.248 4.4479 103.248 8.15443C103.248 8.15443 104.678 2.59463 112.489 2.59463C120.3 2.59463 121.381 8.15443 121.381 8.15443C121.381 4.4479 117.824 1.48267 112.489 1.48267Z" fill="#C28FEF"/>
<path d="M121.311 14.8262C123.473 14.8262 123.473 11.4903 121.311 11.4903V10.3783C121.311 10.3783 109.106 10.0447 106.316 5.55981C107.014 10.0818 103.631 11.4903 103.631 11.4903C101.469 11.4903 101.469 14.8262 103.631 14.8262C103.631 17.4207 106.177 21.4979 112.454 21.4979C118.766 21.4979 121.311 17.4207 121.311 14.8262Z" fill="#8A6859"/>
<path d="M116.848 15.1968C118.1 15.1968 119.114 14.1181 119.114 12.7875C119.114 11.457 118.1 10.3783 116.848 10.3783C115.596 10.3783 114.581 11.457 114.581 12.7875C114.581 14.1181 115.596 15.1968 116.848 15.1968Z" fill="white"/>
<path d="M108.13 15.1968C109.382 15.1968 110.396 14.1181 110.396 12.7875C110.396 11.457 109.382 10.3783 108.13 10.3783C106.878 10.3783 105.863 11.457 105.863 12.7875C105.863 14.1181 106.878 15.1968 108.13 15.1968Z" fill="white"/>
<path d="M116.848 14.4555C117.714 14.4555 118.417 13.7087 118.417 12.7876C118.417 11.8664 117.714 11.1196 116.848 11.1196C115.981 11.1196 115.278 11.8664 115.278 12.7876C115.278 13.7087 115.981 14.4555 116.848 14.4555Z" fill="#664E27"/>
<path d="M116.848 13.3435C117.136 13.3435 117.371 13.0946 117.371 12.7875C117.371 12.4805 117.136 12.2316 116.848 12.2316C116.559 12.2316 116.324 12.4805 116.324 12.7875C116.324 13.0946 116.559 13.3435 116.848 13.3435Z" fill="#231F20"/>
<path d="M108.13 14.4555C108.996 14.4555 109.699 13.7087 109.699 12.7876C109.699 11.8664 108.996 11.1196 108.13 11.1196C107.263 11.1196 106.561 11.8664 106.561 12.7876C106.561 13.7087 107.263 14.4555 108.13 14.4555Z" fill="#664E27"/>
<path d="M108.13 13.3435C108.419 13.3435 108.653 13.0946 108.653 12.7875C108.653 12.4805 108.419 12.2316 108.13 12.2316C107.841 12.2316 107.607 12.4805 107.607 12.7875C107.607 13.0946 107.841 13.3435 108.13 13.3435Z" fill="#231F20"/>
<path d="M115.313 17.0871C113.5 18.4215 111.477 18.4215 109.664 17.0871C109.455 16.9389 109.246 17.1983 109.385 17.4578C109.943 18.4215 111.059 19.274 112.489 19.274C113.918 19.274 115.034 18.4215 115.592 17.4578C115.732 17.1983 115.522 16.9389 115.313 17.0871Z" fill="#574137"/>
<path d="M96.4862 14.0854C96.4862 14.0854 97.6022 12.0097 97.6022 8.89605C97.6022 4.81869 94.7775 0 87.489 0C80.2006 0 77.3759 4.81869 77.3759 8.89605C77.3759 12.0097 78.4569 14.0854 78.4569 14.0854C77.2015 15.6052 76.4343 18.6817 77.5153 20.6833C77.9687 21.4988 82.4324 24.39 82.8509 19.2377H92.0574C92.5107 24.3529 96.9744 21.4988 97.3929 20.6833C98.5089 18.6817 97.7417 15.6052 96.4862 14.0854Z" fill="#594640"/>
<path d="M87.4889 1.48267C82.1533 1.48267 78.2476 4.44802 78.2476 8.1547C78.2476 8.1547 79.6773 2.59467 87.4889 2.59467C95.3004 2.59467 96.3815 8.1547 96.3815 8.1547C96.3815 4.44802 92.8245 1.48267 87.4889 1.48267Z" fill="#C28FEF"/>
<path d="M96.3119 14.8268C98.4741 14.8268 98.4741 11.4908 96.3119 11.4908V10.3788C96.3119 10.3788 84.1064 10.0452 81.3166 5.56006C82.014 10.0822 78.6314 11.4908 78.6314 11.4908C76.4692 11.4908 76.4692 14.8268 78.6314 14.8268C78.6314 17.4215 81.1771 21.4988 87.4542 21.4988C93.7313 21.4988 96.3119 17.4215 96.3119 14.8268Z" fill="#FFE1BD"/>
<path d="M91.848 15.1974C93.0999 15.1974 94.1148 14.1187 94.1148 12.788C94.1148 11.4574 93.0999 10.3787 91.848 10.3787C90.5962 10.3787 89.5813 11.4574 89.5813 12.788C89.5813 14.1187 90.5962 15.1974 91.848 15.1974Z" fill="white"/>
<path d="M83.13 15.1974C84.3819 15.1974 85.3968 14.1187 85.3968 12.788C85.3968 11.4574 84.3819 10.3787 83.13 10.3787C81.8781 10.3787 80.8633 11.4574 80.8633 12.788C80.8633 14.1187 81.8781 15.1974 83.13 15.1974Z" fill="white"/>
<path d="M91.8481 14.456C92.7148 14.456 93.4174 13.7092 93.4174 12.788C93.4174 11.8668 92.7148 11.12 91.8481 11.12C90.9814 11.12 90.2788 11.8668 90.2788 12.788C90.2788 13.7092 90.9814 14.456 91.8481 14.456Z" fill="#664E27"/>
<path d="M91.848 13.3441C92.1369 13.3441 92.3711 13.0951 92.3711 12.7881C92.3711 12.481 92.1369 12.2321 91.848 12.2321C91.5591 12.2321 91.325 12.481 91.325 12.7881C91.325 13.0951 91.5591 13.3441 91.848 13.3441Z" fill="#231F20"/>
<path d="M83.1298 14.456C83.9965 14.456 84.6991 13.7092 84.6991 12.788C84.6991 11.8668 83.9965 11.12 83.1298 11.12C82.2631 11.12 81.5605 11.8668 81.5605 12.788C81.5605 13.7092 82.2631 14.456 83.1298 14.456Z" fill="#664E27"/>
<path d="M83.13 13.3441C83.4189 13.3441 83.6531 13.0951 83.6531 12.7881C83.6531 12.481 83.4189 12.2321 83.13 12.2321C82.8411 12.2321 82.6069 12.481 82.6069 12.7881C82.6069 13.0951 82.8411 13.3441 83.13 13.3441Z" fill="#231F20"/>
<path d="M90.3137 17.0879C88.5003 18.4223 86.4776 18.4223 84.6642 17.0879C84.455 16.9396 84.2458 17.1991 84.3853 17.4585C84.9432 18.4223 86.0592 19.2748 87.4889 19.2748C88.9187 19.2748 90.0347 18.4223 90.5926 17.4585C90.7321 17.1991 90.5229 16.9396 90.3137 17.0879Z" fill="#664E27"/>
<path d="M140 1C133.913 1 129 5.46667 129 11C129 16.5333 133.913 21 140 21C146.087 21 151 16.5333 151 11C151 5.46667 146.087 1 140 1ZM140 17C139.487 16.4 132.483 12.7 133.913 8.6C135.197 4.9 139.45 6.4 140 8.4C140.403 6.53333 144.73 4.83333 146.087 8.6C147.517 12.6333 140.513 16.5333 140 17Z" fill="#FF5A79"/>
</svg>
