<svg width="23" height="19" viewBox="0 0 23 19" fill="none" xmlns="http://www.w3.org/2000/svg">
<path d="M22.9874 9.17252C23.2937 14.2906 17.9712 18.611 11.5382 18.611C5.10526 18.611 -0.600175 14.0247 0.0507808 8.93989C0.969777 1.79455 7.05813 1.32927 11.5382 1.32927C14.2569 1.32927 22.2982 -0.731239 22.9874 9.17252Z" fill="#EF4D3C"/>
<path d="M3.45874 7.64391C4.48928 6.25898 5.8373 5.65056 7.12068 5.30762C8.49369 4.94073 12.8684 5.33988 13.8357 6.38101C14.5573 7.16382 15.0133 8.30388 15.5634 9.204C15.9387 9.81812 16.4471 9.36492 16.4542 8.64524C16.4589 8.16218 16.5395 7.7483 16.4067 7.20453C16.2586 6.59809 16.9214 4.92179 17.5454 4.93668C18.09 4.94968 18.7574 4.37637 18.3067 4.0704C17.6573 3.62956 16.9831 3.40513 16.3802 3.29987C15.9139 3.21847 15.1918 2.78496 15.6308 2.60806C16.0652 2.43306 16.8462 1.76228 16.3806 1.71208C14.8852 1.55085 13.0147 2.28301 11.9778 2.76411C11.5273 2.97312 10.9691 2.83945 10.5742 2.53837C9.77501 1.92916 8.19142 1.26306 5.75822 2.56923C5.54886 2.68162 6.31353 2.94701 6.5506 2.93095C6.81185 2.91324 6.28421 3.97765 6.06316 4.11802C5.06065 4.75463 4.09328 5.83437 3.45874 7.64391Z" fill="#8CC63E"/>
<path d="M4.78351 4.90355C4.16287 5.54854 3.80853 7.09304 4.4166 6.43619C5.11133 5.68574 6.26153 3.6823 5.45108 4.30599C5.20933 4.49203 4.98617 4.69295 4.78351 4.90355Z" fill="#64892F"/>
<path d="M4.56909 3.32345C4.56909 3.32345 6.8202 1.45367 5.093 2.7864C4.87124 2.95751 4.6919 3.13897 4.56909 3.32345ZM11.9594 3.62256C16.6309 5.48367 15.061 7.61065 16.9755 10.6017C15.6736 8.10916 18.8901 3.62256 11.9594 3.62256Z" fill="#64892F"/>
<path d="M10.1216 3.32341C10.1216 3.32341 11.1937 1.92757 11.5767 0.199399C11.615 -0.0332401 12.7637 -6.0536e-06 12.7254 0.232633C12.6062 0.926087 12.6243 1.52284 12.7059 2.01587C12.8456 2.8604 12.4327 3.92162 11.5767 3.92162C10.5811 3.95485 10.1216 3.32341 10.1216 3.32341Z" fill="#64892F"/>
<path d="M12.151 0.398809C12.4683 0.398809 12.7254 0.309533 12.7254 0.199405C12.7254 0.0892765 12.4683 0 12.151 0C11.8338 0 11.5767 0.0892765 11.5767 0.199405C11.5767 0.309533 11.8338 0.398809 12.151 0.398809Z" fill="#8CC63E"/>
</svg>
