<svg width="68" height="20" viewBox="0 0 68 20" fill="none" xmlns="http://www.w3.org/2000/svg">
<path d="M17.6192 6.82693L9.36571 3.44451L0.234143 6.11321C0.234143 6.11321 -0.292678 9.58873 0.234143 13.1573C1.04194 18.712 7.78525 17.75 7.78525 17.75C12.5969 19.6739 17.4085 17.8741 19.6212 13.2504C20.429 11.5437 20.5343 6.7959 17.6192 6.82693Z" fill="#D6A57C"/>
<path d="M0.269286 4.46857C0.269286 3.22731 1.32293 2.23431 2.65754 2.23431H2.69266C3.99216 2.23431 5.08092 3.22731 5.08092 4.46857V7.91306C5.08092 9.15432 4.02728 10.1473 2.69266 10.1473H2.65754C1.32293 10.1473 0.269286 9.15432 0.269286 7.91306V4.46857Z" fill="#D6A57C"/>
<path d="M1.95508 9.30945C3.28969 9.30945 4.34333 8.31645 4.34333 7.10622V3.66173C4.34333 3.32039 4.23797 2.97904 4.09748 2.69976C4.76479 3.10317 5.04576 3.78586 5.04576 4.49958V7.94407C5.04576 9.18533 4.02724 10.1473 2.69263 10.1473H2.65751C1.70923 10.1473 0.866314 9.61977 0.479979 8.84398C0.901436 9.12326 1.42826 9.30945 1.95508 9.30945Z" fill="#B58360"/>
<path d="M5.01072 2.48249C5.01072 1.24123 6.06437 0.248229 7.39898 0.248229H7.4341C8.76872 0.248229 9.82236 1.24123 9.82236 2.48249V5.92698C9.82236 7.16824 8.76872 8.16125 7.4341 8.16125H7.39898C6.06437 8.16125 5.01072 7.16824 5.01072 5.92698V2.48249Z" fill="#D6A57C"/>
<path d="M6.69652 7.3234C8.03113 7.3234 9.08477 6.36143 9.08477 5.12017V1.67568C9.08477 1.33434 8.97941 0.99299 8.83892 0.682676C9.54135 1.17918 9.7872 1.76878 9.7872 2.51353V5.95802C9.7872 7.19928 8.73356 8.13022 7.43407 8.13022H7.39894C6.45067 8.13022 5.60775 7.60269 5.22142 6.8269C5.64287 7.13721 6.1697 7.3234 6.69652 7.3234Z" fill="#B58360"/>
<path d="M9.82223 2.23426C9.82223 0.993006 10.8759 0 12.2105 0H12.2456C13.5451 0 14.6339 0.993006 14.6339 2.23426V5.67875C14.6339 6.92001 13.5802 7.91302 12.2456 7.91302H12.2105C10.8759 7.91302 9.82223 6.92001 9.82223 5.67875V2.23426Z" fill="#D6A57C"/>
<path d="M11.5083 7.07515C12.8429 7.07515 13.8965 6.11317 13.8965 4.87192V1.42743C13.8965 1.08608 13.8263 0.744735 13.6858 0.465452C14.3882 0.930924 14.6341 1.55155 14.6341 2.26528V5.70976C14.6341 6.95102 13.5804 7.88196 12.2458 7.88196H12.2107C11.2624 7.88196 10.4195 7.35443 10.0332 6.57864C10.4546 6.88896 10.9463 7.07515 11.5083 7.07515Z" fill="#B58360"/>
<path d="M14.5285 3.35139C14.5285 2.11013 15.5821 1.11712 16.9167 1.11712H16.9519C18.2865 1.11712 19.3401 2.11013 19.3401 3.35139V6.79587C19.3401 8.03713 18.2865 9.03014 16.9519 9.03014H16.8816C15.547 9.03014 14.4934 8.03713 14.4934 6.79587V3.35139H14.5285Z" fill="#D6A57C"/>
<path d="M16.2496 8.19227C17.5842 8.19227 18.6027 7.19926 18.6027 5.98904V2.54455C18.6027 2.2032 18.5325 1.86186 18.392 1.58257C19.1295 2.04805 19.3403 2.66868 19.3403 3.3824V6.82689C19.3403 8.06814 18.3218 9.03012 17.0223 9.03012H16.9871C16.0389 9.03012 15.1959 8.50258 14.8096 7.7268C15.1959 8.00608 15.6876 8.19227 16.2496 8.19227ZM13.5804 9.4025C11.5784 8.53362 7.0829 10.0231 7.96094 13.7469C7.96094 9.86797 11.8594 9.21631 13.5804 9.4025Z" fill="#B58360"/>
<path d="M14.4583 4.65467C12.5968 3.50651 11.9998 4.99602 8.62813 4.80983C7.15303 4.71674 6.16963 7.16822 8.27692 8.28535C11.192 9.80589 11.6837 8.0371 12.351 8.81289C13.0534 9.6197 13.791 9.83692 14.3529 10.7368C14.7744 11.3885 18.7431 10.7679 19.305 9.52661C20.4289 7.13719 17.3734 6.48553 14.4583 4.65467Z" fill="#B58360"/>
<path d="M14.6692 5.12023C12.7375 3.94103 12.1404 5.4926 8.6283 5.27538C7.08296 5.18229 6.06444 7.72687 8.27709 8.87503C11.3327 10.4576 11.8243 8.62678 12.5268 9.4336C13.2643 10.2714 14.037 10.4887 14.5989 11.4506C15.0204 12.1333 13.3346 14.4917 13.3346 14.4917C13.3346 14.4917 16.9872 17.1294 17.9706 15.8881C19.7969 13.5918 19.6213 11.6368 19.7618 10.2094C20.0428 6.88902 17.6896 7.01314 14.6692 5.12023Z" fill="#D6A57C"/>
<path d="M14.1073 11.4506C14.2477 11.6678 14.1775 12.0402 14.0019 12.4436C14.318 11.823 14.5638 11.1713 14.3882 10.861C13.7912 9.89904 13.4399 9.68182 12.7024 8.84397C12 8.03715 11.5083 9.89904 8.4527 8.2854C7.32882 7.69581 7.04785 6.73383 7.25857 5.95805C6.69663 6.76486 6.73175 8.13025 8.17173 8.875C11.2273 10.4576 11.719 8.62675 12.4214 9.43357C13.159 10.3024 13.5102 10.5197 14.1073 11.4506Z" fill="#B58360"/>
<path d="M18.4973 7.10624C20.4289 8.13027 19.7616 12.816 17.9704 14.9262C15.1607 18.2465 11.473 18.2155 7.78523 17.5638C7.78523 17.5638 3.32481 18.6499 0.725827 14.9262C2.34141 18.8671 7.78523 18.0603 7.78523 18.0603C11.6837 19.1154 15.4768 18.8671 18.4621 15.4537C20.3938 13.2815 21.5528 7.97512 18.4973 7.10624Z" fill="#B58360"/>
<path d="M41.4312 7.31881L33.1776 3.93639L24.0461 6.60509C24.0461 6.60509 23.5192 10.0806 24.0461 13.6492C24.8539 19.2039 31.5972 18.2419 31.5972 18.2419C36.4088 20.1658 41.2204 18.366 43.4331 13.7423C44.2409 12.0356 44.3462 7.28778 41.4312 7.31881Z" fill="#B47D56"/>
<path d="M24.0812 4.96045C24.0812 3.71919 25.1349 2.72619 26.4695 2.72619H26.5046C27.8041 2.72619 28.8928 3.71919 28.8928 4.96045V8.40494C28.8928 9.6462 27.8392 10.6392 26.5046 10.6392H26.4695C25.1349 10.6392 24.0812 9.6462 24.0812 8.40494V4.96045Z" fill="#B47D56"/>
<path d="M25.767 9.80133C27.1016 9.80133 28.1553 8.80833 28.1553 7.5981V4.15361C28.1553 3.81227 28.0499 3.47092 27.9094 3.19164C28.5767 3.59505 28.8577 4.27774 28.8577 4.99146V8.43595C28.8577 9.67721 27.8392 10.6392 26.5046 10.6392H26.4694C25.5212 10.6392 24.6782 10.1116 24.2919 9.33586C24.7134 9.61515 25.2402 9.80133 25.767 9.80133Z" fill="#935E3E"/>
<path d="M28.8224 2.97443C28.8224 1.73318 29.876 0.740171 31.2107 0.740171H31.2458C32.5804 0.740171 33.634 1.73318 33.634 2.97443V6.41892C33.634 7.66018 32.5804 8.65319 31.2458 8.65319H31.2107C29.876 8.65319 28.8224 7.66018 28.8224 6.41892V2.97443Z" fill="#B47D56"/>
<path d="M30.5084 7.81534C31.8431 7.81534 32.8967 6.85337 32.8967 5.61211V2.16762C32.8967 1.82628 32.7913 1.48493 32.6508 1.17462C33.3533 1.67112 33.5991 2.26072 33.5991 3.00547V6.44996C33.5991 7.69122 32.5455 8.62216 31.246 8.62216H31.2109C30.2626 8.62216 29.4197 8.09463 29.0333 7.31884C29.4548 7.62916 29.9816 7.81534 30.5084 7.81534Z" fill="#935E3E"/>
<path d="M33.6342 2.72614C33.6342 1.48489 34.6878 0.491881 36.0224 0.491881H36.0575C37.357 0.491881 38.4458 1.48489 38.4458 2.72614V6.17063C38.4458 7.41189 37.3921 8.4049 36.0575 8.4049H36.0224C34.6878 8.4049 33.6342 7.41189 33.6342 6.17063V2.72614Z" fill="#B47D56"/>
<path d="M35.3199 7.56709C36.6546 7.56709 37.7082 6.60511 37.7082 5.36386V1.91937C37.7082 1.57802 37.638 1.23668 37.4975 0.957394C38.1999 1.42287 38.4458 2.04349 38.4458 2.75722V6.20171C38.4458 7.44296 37.3921 8.37391 36.0575 8.37391H36.0224C35.0741 8.37391 34.2312 7.84637 33.8448 7.07059C34.2663 7.3809 34.758 7.56709 35.3199 7.56709Z" fill="#935E3E"/>
<path d="M38.3404 3.84327C38.3404 2.60201 39.394 1.609 40.7287 1.609H40.7638C42.0984 1.609 43.152 2.60201 43.152 3.84327V7.28776C43.152 8.52901 42.0984 9.52202 40.7638 9.52202H40.6935C39.3589 9.52202 38.3053 8.52901 38.3053 7.28776V3.84327H38.3404Z" fill="#B47D56"/>
<path d="M40.0615 8.68421C41.3961 8.68421 42.4147 7.69121 42.4147 6.48098V3.03649C42.4147 2.69515 42.3444 2.3538 42.2039 2.07452C42.9415 2.53999 43.1522 3.16062 43.1522 3.87434V7.31883C43.1522 8.56009 42.1337 9.52206 40.8342 9.52206H40.7991C39.8508 9.52206 39.0079 8.99453 38.6215 8.21874C39.0079 8.49802 39.4996 8.68421 40.0615 8.68421ZM37.3923 9.89444C35.3904 9.02556 30.8948 10.5151 31.7729 14.2388C31.7729 10.3599 35.6713 9.70825 37.3923 9.89444Z" fill="#935E3E"/>
<path d="M38.2702 5.14662C36.4088 3.99845 35.8117 5.48796 32.4401 5.30177C30.965 5.20868 29.9816 7.66016 32.0888 8.77729C35.0039 10.2978 35.4956 8.52904 36.1629 9.30483C36.8654 10.1116 37.6029 10.3289 38.1648 11.2288C38.5863 11.8804 42.555 11.2598 43.117 10.0186C44.2409 7.62913 41.1853 6.97747 38.2702 5.14662Z" fill="#935E3E"/>
<path d="M38.4811 5.61211C36.5494 4.43291 35.9524 5.98448 32.4402 5.76726C30.8949 5.67417 29.8764 8.21875 32.089 9.36691C35.1446 10.9495 35.6363 9.11866 36.3387 9.92548C37.0763 10.7633 37.8489 10.9805 38.4109 11.9425C38.8323 12.6252 37.1465 14.9836 37.1465 14.9836C37.1465 14.9836 40.7991 17.6213 41.7825 16.38C43.6088 14.0837 43.4332 12.1287 43.5737 10.7013C43.8547 7.3809 41.5016 7.50502 38.4811 5.61211Z" fill="#B47D56"/>
<path d="M37.9189 11.9425C38.0594 12.1597 37.9892 12.5321 37.8136 12.9355C38.1297 12.3149 38.3755 11.6632 38.1999 11.3529C37.6028 10.3909 37.2516 10.1737 36.5141 9.33585C35.8116 8.52903 35.3199 10.3909 32.2644 8.77729C31.1405 8.18769 30.8595 7.22571 31.0703 6.44993C30.5083 7.25675 30.5434 8.62213 31.9834 9.36688C35.039 10.9495 35.5307 9.11863 36.2331 9.92545C36.9707 10.7943 37.3219 11.0115 37.9189 11.9425Z" fill="#935E3E"/>
<path d="M42.3092 7.59812C44.2409 8.62215 43.5736 13.3079 41.7824 15.418C38.9727 18.7384 35.2849 18.7074 31.5972 18.0557C31.5972 18.0557 27.1367 19.1418 24.5378 15.418C26.1533 19.359 31.5972 18.5522 31.5972 18.5522C35.4956 19.6073 39.2887 19.359 42.2741 15.9456C44.2057 13.7734 45.3648 8.467 42.3092 7.59812Z" fill="#935E3E"/>
<path d="M65.2429 6.82693L56.9893 3.44451L47.8578 6.11321C47.8578 6.11321 47.3309 9.58873 47.8578 13.1573C48.6655 18.712 55.4089 17.75 55.4089 17.75C60.2205 19.6739 65.0321 17.8741 67.2448 13.2504C68.0526 11.5437 68.1579 6.7959 65.2429 6.82693Z" fill="#8A6859"/>
<path d="M47.8931 4.46857C47.8931 3.22731 48.9468 2.23431 50.2814 2.23431H50.3165C51.616 2.23431 52.7048 3.22731 52.7048 4.46857V7.91306C52.7048 9.15432 51.6511 10.1473 50.3165 10.1473H50.2814C48.9468 10.1473 47.8931 9.15432 47.8931 7.91306V4.46857Z" fill="#8A6859"/>
<path d="M49.5789 9.30945C50.9135 9.30945 51.9672 8.31645 51.9672 7.10622V3.66173C51.9672 3.32039 51.8618 2.97904 51.7213 2.69976C52.3886 3.10317 52.6696 3.78586 52.6696 4.49958V7.94407C52.6696 9.18533 51.6511 10.1473 50.3165 10.1473H50.2814C49.3331 10.1473 48.4902 9.61977 48.1038 8.84398C48.5253 9.12326 49.0521 9.30945 49.5789 9.30945Z" fill="#705041"/>
<path d="M52.6343 2.48249C52.6343 1.24123 53.688 0.248229 55.0226 0.248229H55.0577C56.3923 0.248229 57.446 1.24123 57.446 2.48249V5.92698C57.446 7.16824 56.3923 8.16125 55.0577 8.16125H55.0226C53.688 8.16125 52.6343 7.16824 52.6343 5.92698V2.48249Z" fill="#8A6859"/>
<path d="M54.3201 7.3234C55.6547 7.3234 56.7084 6.36143 56.7084 5.12017V1.67568C56.7084 1.33434 56.603 0.99299 56.4625 0.682676C57.165 1.17918 57.4108 1.76878 57.4108 2.51353V5.95802C57.4108 7.19928 56.3572 8.13022 55.0577 8.13022H55.0226C54.0743 8.13022 53.2314 7.60269 52.845 6.8269C53.2665 7.13721 53.7933 7.3234 54.3201 7.3234Z" fill="#705041"/>
<path d="M57.4461 2.23426C57.4461 0.993006 58.4997 0 59.8343 0H59.8695C61.169 0 62.2577 0.993006 62.2577 2.23426V5.67875C62.2577 6.92001 61.2041 7.91302 59.8695 7.91302H59.8343C58.4997 7.91302 57.4461 6.92001 57.4461 5.67875V2.23426Z" fill="#8A6859"/>
<path d="M59.1319 7.07515C60.4665 7.07515 61.5201 6.11317 61.5201 4.87192V1.42743C61.5201 1.08608 61.4499 0.744735 61.3094 0.465452C62.0118 0.930924 62.2577 1.55155 62.2577 2.26528V5.70976C62.2577 6.95102 61.204 7.88196 59.8694 7.88196H59.8343C58.886 7.88196 58.0431 7.35443 57.6568 6.57864C58.0782 6.88896 58.5699 7.07515 59.1319 7.07515Z" fill="#705041"/>
<path d="M62.1521 3.35139C62.1521 2.11013 63.2057 1.11712 64.5403 1.11712H64.5755C65.9101 1.11712 66.9637 2.11013 66.9637 3.35139V6.79587C66.9637 8.03713 65.9101 9.03014 64.5755 9.03014H64.5052C63.1706 9.03014 62.117 8.03713 62.117 6.79587V3.35139H62.1521Z" fill="#8A6859"/>
<path d="M63.8732 8.19227C65.2078 8.19227 66.2263 7.19926 66.2263 5.98904V2.54455C66.2263 2.2032 66.1561 1.86186 66.0156 1.58257C66.7532 2.04805 66.9639 2.66868 66.9639 3.3824V6.82689C66.9639 8.06814 65.9454 9.03012 64.6459 9.03012H64.6107C63.6625 9.03012 62.8196 8.50258 62.4332 7.7268C62.8196 8.00608 63.3113 8.19227 63.8732 8.19227ZM61.204 9.4025C59.202 8.53362 54.7065 10.0231 55.5845 13.7469C55.5845 9.86797 59.483 9.21631 61.204 9.4025Z" fill="#705041"/>
<path d="M62.0819 4.65467C60.2205 3.50651 59.6234 4.99602 56.2517 4.80983C54.7766 4.71674 53.7932 7.16822 55.9005 8.28535C58.8156 9.80589 59.3073 8.0371 59.9746 8.81289C60.677 9.6197 61.4146 9.83692 61.9765 10.7368C62.398 11.3885 66.3667 10.7679 66.9286 9.52661C68.0525 7.13719 64.997 6.48553 62.0819 4.65467Z" fill="#705041"/>
<path d="M62.2928 5.12023C60.3611 3.94103 59.7641 5.4926 56.2519 5.27538C54.7066 5.18229 53.688 7.72687 55.9007 8.87503C58.9563 10.4576 59.448 8.62678 60.1504 9.4336C60.8879 10.2714 61.6606 10.4887 62.2226 11.4506C62.644 12.1333 60.9582 14.4917 60.9582 14.4917C60.9582 14.4917 64.6108 17.1294 65.5942 15.8881C67.4205 13.5918 67.2449 11.6368 67.3854 10.2094C67.6664 6.88902 65.3132 7.01314 62.2928 5.12023Z" fill="#8A6859"/>
<path d="M61.7309 11.4506C61.8713 11.6678 61.8011 12.0402 61.6255 12.4436C61.9416 11.823 62.1874 11.1713 62.0118 10.861C61.4148 9.89904 61.0636 9.68182 60.326 8.84397C59.6236 8.03715 59.1319 9.89904 56.0763 8.2854C54.9524 7.69581 54.6715 6.73383 54.8822 5.95805C54.3202 6.76486 54.3554 8.13025 55.7953 8.875C58.8509 10.4576 59.3426 8.62675 60.045 9.43357C60.7826 10.3024 61.1338 10.5197 61.7309 11.4506Z" fill="#705041"/>
<path d="M66.1211 7.10624C68.0528 8.13027 67.3855 12.816 65.5943 14.9262C62.7846 18.2465 59.0968 18.2155 55.4091 17.5638C55.4091 17.5638 50.9487 18.6499 48.3497 14.9262C49.9653 18.8671 55.4091 18.0603 55.4091 18.0603C59.3076 19.1154 63.1007 18.8671 66.086 15.4537C68.0177 13.2815 69.1767 7.97512 66.1211 7.10624Z" fill="#705041"/>
</svg>
