<svg width="14" height="27" viewBox="0 0 14 27" fill="none" xmlns="http://www.w3.org/2000/svg">
<path d="M1.92473 26.9965C1.4758 26.9974 1.04074 26.8408 0.695067 26.5539C0.500514 26.3924 0.339694 26.194 0.221815 25.9701C0.103937 25.7462 0.0313166 25.5013 0.00811467 25.2492C-0.0150873 24.9972 0.0115849 24.743 0.086603 24.5013C0.161621 24.2596 0.28351 24.0351 0.445291 23.8407L3.79405 19.828C6.85275 16.1628 6.90253 10.8492 3.91305 7.12741L0.752708 3.19288C0.59311 2.99605 0.473925 2.76956 0.402006 2.52645C0.330086 2.28333 0.30685 2.02838 0.333632 1.77624C0.360414 1.5241 0.436685 1.27975 0.558064 1.05723C0.679443 0.834709 0.843536 0.638408 1.04091 0.479609C1.2397 0.304427 1.47251 0.17229 1.72471 0.0914898C1.97691 0.01069 2.24306 -0.0170271 2.50647 0.0100765C2.76987 0.0371802 3.02484 0.11852 3.25536 0.248992C3.48589 0.379463 3.687 0.556249 3.84608 0.768255L13.1262 12.3141C13.4088 12.6584 13.5633 13.0903 13.5633 13.536C13.5633 13.9817 13.4088 14.4136 13.1262 14.758L3.51945 26.3038C3.32671 26.5367 3.08186 26.7207 2.80478 26.8411C2.52771 26.9615 2.2262 27.0147 1.92473 26.9965Z" fill="#18565A"/>
</svg>
