<svg width="1490" height="1095" viewBox="0 0 1490 1095" fill="none" xmlns="http://www.w3.org/2000/svg">
<rect x="296.079" y="409.498" width="11.0849" height="13.2458" transform="rotate(123 296.079 409.498)" fill="#FF7272" fill-opacity="0.9"/>
<rect x="837.317" y="177.396" width="11.0849" height="11.2449" transform="rotate(71 837.317 177.396)" fill="#D4975E" fill-opacity="0.6"/>
<rect x="605.215" y="392.491" width="46.1003" height="16.2471" transform="rotate(-177 605.215 392.491)" fill="#D4975E" fill-opacity="0.6"/>
<rect x="703.258" y="1069.79" width="26.0915" height="12.2454" transform="rotate(-67 703.258 1069.79)" fill="#FF7272" fill-opacity="0.85"/>
<rect x="41.9671" y="889.71" width="47.1007" height="13.2458" transform="rotate(-153 41.9671 889.71)" fill="#404466" fill-opacity="0.6"/>
<rect x="898.344" y="769.657" width="45.0998" height="13.2458" transform="rotate(-95 898.344 769.657)" fill="#D36234" fill-opacity="0.75"/>
<rect x="1155.46" y="756.651" width="20.0888" height="19.2485" transform="rotate(-123 1155.46 756.651)" fill="#FF7272" fill-opacity="0.45"/>
<rect x="127.004" y="616.589" width="36.0959" height="12.2454" transform="rotate(50 127.004 616.589)" fill="#404466" fill-opacity="0.35"/>
<rect x="1017.4" y="301.451" width="56.1047" height="13.2458" transform="rotate(43 1017.4 301.451)" fill="#814E6E" fill-opacity="0.45"/>
<rect x="461.152" y="974.747" width="53.1034" height="14.2463" transform="rotate(72 461.152 974.747)" fill="#FF7272" fill-opacity="0.6"/>
<rect x="879.336" y="912.72" width="23.0902" height="18.248" transform="rotate(-125 879.336 912.72)" fill="#D36234" fill-opacity="0.6"/>
<rect x="543.188" y="417.502" width="48.1012" height="19.2485" transform="rotate(96 543.188 417.502)" fill="#D4975E" fill-opacity="0.75"/>
<rect x="891.341" y="218.414" width="14.0862" height="11.2449" transform="rotate(-75 891.341 218.414)" fill="#FF7272" fill-opacity="0.6"/>
<rect x="1090.43" y="329.463" width="46.1003" height="20.2489" transform="rotate(-67 1090.43 329.463)" fill="#D36234" fill-opacity="0.85"/>
<rect x="1358.55" y="659.608" width="48.1012" height="19.2485" transform="rotate(-34 1358.55 659.608)" fill="#D4975E" fill-opacity="0.9"/>
<rect x="1254.5" y="547.559" width="24.0906" height="19.2485" transform="rotate(13 1254.5 547.559)" fill="#D4975E" fill-opacity="0.85"/>
<rect x="663.24" y="833.685" width="40.0976" height="16.2471" transform="rotate(116 663.24 833.685)" fill="#D36234" fill-opacity="0.35"/>
<rect x="1228.49" y="714.633" width="57.1051" height="18.248" transform="rotate(-112 1228.49 714.633)" fill="#404466" fill-opacity="0.75"/>
<rect x="1062.42" y="366.479" width="13.0858" height="19.2485" transform="rotate(43 1062.42 366.479)" fill="#D36234"/>
<rect x="944.364" y="977.748" width="42.0985" height="18.248" transform="rotate(-55 944.364 977.748)" fill="#404466" fill-opacity="0.75"/>
<rect x="816.308" y="1046.78" width="37.0963" height="20.2489" transform="rotate(-180 816.308 1046.78)" fill="#814E6E" fill-opacity="0.9"/>
<rect x="742.275" y="519.547" width="40.0976" height="20.2489" transform="rotate(-4 742.275 519.547)" fill="#814E6E" fill-opacity="0.75"/>
<rect x="1082.42" y="829.683" width="35.0954" height="15.2467" transform="rotate(-122 1082.42 829.683)" fill="#404466" fill-opacity="0.75"/>
<rect x="908.348" y="321.46" width="46.1003" height="21.2493" transform="rotate(-119 908.348 321.46)" fill="#D36234" fill-opacity="0.45"/>
<rect x="819.309" y="482.53" width="39.0972" height="14.2463" transform="rotate(109 819.309 482.53)" fill="#814E6E" fill-opacity="0.65"/>
<rect x="400.125" y="605.585" width="56.1047" height="19.2485" transform="rotate(-34 400.125 605.585)" fill="#D4975E"/>
<rect x="546.189" y="628.595" width="47.1007" height="11.2449" transform="rotate(106 546.189 628.595)" fill="#814E6E" fill-opacity="0.45"/>
<rect x="535.184" y="372.482" width="30.0932" height="15.2467" transform="rotate(-86 535.184 372.482)" fill="#FF7272" fill-opacity="0.65"/>
<rect x="80.9842" y="1003.76" width="41.0981" height="19.2485" transform="rotate(158 80.9842 1003.76)" fill="#814E6E" fill-opacity="0.65"/>
<rect x="424.135" y="746.647" width="16.0871" height="16.2471" transform="rotate(125 424.135 746.647)" fill="#814E6E" fill-opacity="0.35"/>
<rect x="1255.5" y="819.679" width="38.0968" height="21.2493" transform="rotate(-32 1255.5 819.679)" fill="#814E6E" fill-opacity="0.9"/>
<rect x="1070.42" y="179.397" width="57.1051" height="15.2467" transform="rotate(150 1070.42 179.397)" fill="#814E6E" fill-opacity="0.85"/>
<rect x="1350.54" y="552.561" width="21.0893" height="16.2471" transform="rotate(-142 1350.54 552.561)" fill="#404466" fill-opacity="0.85"/>
<rect x="770.288" y="589.578" width="24.0906" height="15.2467" transform="rotate(-123 770.288 589.578)" fill="#814E6E" fill-opacity="0.75"/>
<rect x="953.368" y="846.691" width="47.1007" height="13.2458" transform="rotate(-177 953.368 846.691)" fill="#FF7272" fill-opacity="0.9"/>
<rect x="763.284" y="342.469" width="10.0844" height="19.2485" transform="rotate(137 763.284 342.469)" fill="#814E6E"/>
<rect x="1023.4" y="396.493" width="35.0954" height="19.2485" transform="rotate(79 1023.4 396.493)" fill="#D36234" fill-opacity="0.85"/>
<rect x="980.38" y="53.3416" width="51.1025" height="19.2485" transform="rotate(-123 980.38 53.3416)" fill="#FF7272" fill-opacity="0.35"/>
<rect x="104.995" y="865.699" width="12.0853" height="13.2458" transform="rotate(-71 104.995 865.699)" fill="#FF7272" fill-opacity="0.9"/>
<rect x="954.369" y="806.673" width="20.0888" height="16.2471" transform="rotate(27 954.369 806.673)" fill="#D4975E" fill-opacity="0.75"/>
<rect x="732.271" y="838.687" width="27.0919" height="19.2485" transform="rotate(99 732.271 838.687)" fill="#814E6E" fill-opacity="0.35"/>
<rect x="905.347" y="783.663" width="39.0972" height="20.2489" transform="rotate(105 905.347 783.663)" fill="#814E6E" fill-opacity="0.65"/>
<rect x="981.38" y="380.486" width="26.0915" height="11.2449" transform="rotate(154 981.38 380.486)" fill="#FF7272" fill-opacity="0.45"/>
<rect x="649.234" y="790.666" width="15.0866" height="15.2467" transform="rotate(49 649.234 790.666)" fill="#D4975E" fill-opacity="0.45"/>
<rect x="1230.49" y="296.449" width="36.0959" height="11.2449" transform="rotate(162 1230.49 296.449)" fill="#404466" fill-opacity="0.85"/>
<rect x="895.343" y="574.571" width="32.0941" height="10.2445" transform="rotate(-76 895.343 574.571)" fill="#814E6E" fill-opacity="0.85"/>
<rect x="681.248" y="994.756" width="28.0924" height="15.2467" transform="rotate(-157 681.248 994.756)" fill="#404466"/>
<rect x="986.383" y="280.442" width="43.099" height="13.2458" transform="rotate(-52 986.383 280.442)" fill="#404466" fill-opacity="0.35"/>
<circle cx="1440.68" cy="835.786" r="7.10313" fill="#404466" fill-opacity="0.75"/>
<circle cx="1286.61" cy="165.491" r="8.10357" fill="#FF7272" fill-opacity="0.85"/>
<circle cx="889.94" cy="968.344" r="4.60203" fill="#D4975E" fill-opacity="0.65"/>
<circle cx="1009.49" cy="264.535" r="7.10313" fill="#FF7272" fill-opacity="0.75"/>
<circle cx="561.296" cy="651.705" r="10.1044" fill="#404466" fill-opacity="0.75"/>
<circle cx="1017.5" cy="452.617" r="7.10313" fill="#FF7272" fill-opacity="0.35"/>
<circle cx="70.0794" cy="556.663" r="9.10401" fill="#FF7272" fill-opacity="0.35"/>
<circle cx="173.125" cy="256.531" r="6.10268" fill="#D36234" fill-opacity="0.9"/>
<circle cx="260.663" cy="372.082" r="3.60158" fill="#D4975E" fill-opacity="0.65"/>
<circle cx="1091.53" cy="800.771" r="5.10224" fill="#404466" fill-opacity="0.6"/>
<circle cx="1438.18" cy="1023.37" r="8.60379" fill="#404466" fill-opacity="0.85"/>
<circle cx="198.136" cy="902.815" r="8.10357" fill="#D36234" fill-opacity="0.35"/>
<circle cx="309.685" cy="650.204" r="4.60203" fill="#404466" fill-opacity="0.45"/>
<circle cx="1397.16" cy="160.989" r="9.60423" fill="#814E6E" fill-opacity="0.85"/>
<circle cx="1228.09" cy="351.073" r="4.60203" fill="#D36234" fill-opacity="0.75"/>
<circle cx="1130.05" cy="844.29" r="9.60423" fill="#D4975E"/>
<circle cx="1465.69" cy="599.682" r="4.1018" fill="#404466" fill-opacity="0.75"/>
<circle cx="251.659" cy="1049.38" r="6.60291" fill="#D36234" fill-opacity="0.45"/>
<circle cx="984.982" cy="274.039" r="9.60423" fill="#FF7272" fill-opacity="0.6"/>
<circle cx="921.954" cy="507.141" r="5.60247" fill="#814E6E" fill-opacity="0.9"/>
<circle cx="977.979" cy="283.043" r="10.6047" fill="#D36234" fill-opacity="0.75"/>
<circle cx="275.67" cy="755.25" r="5.60247" fill="#814E6E" fill-opacity="0.65"/>
<circle cx="1091.03" cy="796.269" r="8.60379" fill="#FF7272" fill-opacity="0.45"/>
<circle cx="1366.65" cy="425.605" r="7.10313" fill="#FF7272" fill-opacity="0.65"/>
<circle cx="1209.58" cy="669.713" r="9.10401" fill="#404466" fill-opacity="0.65"/>
<circle cx="667.342" cy="763.754" r="6.10268" fill="#814E6E"/>
<circle cx="1314.63" cy="408.598" r="4.1018" fill="#D36234" fill-opacity="0.9"/>
<circle cx="1061.02" cy="1028.37" r="8.60379" fill="#D4975E" fill-opacity="0.65"/>
<circle cx="1356.65" cy="608.686" r="7.10313" fill="#FF7272" fill-opacity="0.45"/>
<circle cx="1362.15" cy="774.259" r="7.60335" fill="#D4975E" fill-opacity="0.75"/>
<circle cx="1462.69" cy="975.848" r="6.10268" fill="#D36234" fill-opacity="0.9"/>
<circle cx="191.633" cy="1085.4" r="9.60423" fill="#FF7272"/>
<circle cx="336.197" cy="452.617" r="8.10357" fill="#D36234" fill-opacity="0.75"/>
<circle cx="561.296" cy="547.659" r="5.10224" fill="#D4975E" fill-opacity="0.75"/>
<circle cx="290.176" cy="640.7" r="6.10268" fill="#D4975E"/>
<circle cx="212.642" cy="688.221" r="9.60423" fill="#404466" fill-opacity="0.35"/>
<circle cx="689.352" cy="850.793" r="6.10268" fill="#814E6E" fill-opacity="0.45"/>
<circle cx="98.0918" cy="77.4522" r="4.1018" fill="#404466" fill-opacity="0.45"/>
<circle cx="712.362" cy="579.673" r="8.10357" fill="#D36234" fill-opacity="0.45"/>
<circle cx="1161.06" cy="1047.38" r="3.60158" fill="#814E6E" fill-opacity="0.65"/>
<circle cx="902.446" cy="1002.86" r="7.10313" fill="#FF7272" fill-opacity="0.75"/>
<circle cx="367.21" cy="908.818" r="6.10268" fill="#814E6E" fill-opacity="0.75"/>
<circle cx="390.721" cy="1055.38" r="10.6047" fill="#404466" fill-opacity="0.75"/>
<circle cx="278.171" cy="372.582" r="7.10313" fill="#D36234"/>
<circle cx="1216.58" cy="650.704" r="6.10268" fill="#FF7272" fill-opacity="0.9"/>
<circle cx="129.606" cy="552.161" r="9.60423" fill="#404466"/>
<circle cx="852.424" cy="649.704" r="5.10224" fill="#D36234" fill-opacity="0.6"/>
<path d="M1358.83 981.861L1355.38 990.394L1346.26 991.675L1340.6 984.423L1344.05 975.889L1353.16 974.608L1358.83 981.861Z" fill="#814E6E" fill-opacity="0.75"/>
<path d="M77.7848 298.219L66.4653 291.417L66.6957 278.214L78.2458 271.811L89.5654 278.613L89.3349 291.817L77.7848 298.219Z" fill="#D36234" fill-opacity="0.85"/>
<path d="M803.261 42.2958V22.2052H823.352V42.2958H803.261Z" fill="#D4975E" fill-opacity="0.9"/>
<path d="M239.356 256.67L227.368 250.025L227.129 236.321L238.878 229.262L250.865 235.907L251.104 249.611L239.356 256.67Z" fill="#D4975E"/>
<path d="M1250.12 473.511L1262.05 469.863L1259.24 482.02L1250.12 473.511Z" fill="#D4975E" fill-opacity="0.85"/>
<path d="M823.31 726.768L826.496 710.375L843.072 708.34L850.13 723.475L837.916 734.865L823.31 726.768Z" fill="#FF7272" fill-opacity="0.65"/>
<path d="M206.019 639.684L211.999 651.421L202.684 660.735L190.948 654.755L193.009 641.745L206.019 639.684Z" fill="#D4975E" fill-opacity="0.35"/>
<path d="M338.418 813.32L336.471 823.337L326.823 826.66L319.121 819.965L321.068 809.948L330.717 806.626L338.418 813.32Z" fill="#D4975E" fill-opacity="0.6"/>
<path d="M352.869 555.993L339.197 557.19L338.001 543.518L351.673 542.322L352.869 555.993Z" fill="#FF7272" fill-opacity="0.65"/>
<path d="M863.852 147.936L846.815 136.007L858.745 118.97L875.781 130.899L863.852 147.936Z" fill="#404466" fill-opacity="0.35"/>
<path d="M46.2405 586.851L30.9952 582.19L42.6544 571.317L46.2405 586.851Z" fill="#D4975E" fill-opacity="0.75"/>
<path d="M405.491 272.187L415.249 281.286L402.489 285.187L405.491 272.187Z" fill="#404466" fill-opacity="0.65"/>
<path d="M258.033 449.49L254.029 433.428L270.09 429.423L274.095 445.485L258.033 449.49Z" fill="#D36234" fill-opacity="0.75"/>
<path d="M387.582 691.304L381.761 698.241L373.365 694.848L373.996 685.815L382.783 683.624L387.582 691.304Z" fill="#FF7272" fill-opacity="0.75"/>
<path d="M166.326 547.458L152.539 544.02L162.409 533.799L166.326 547.458Z" fill="#FF7272" fill-opacity="0.45"/>
<path d="M131.024 814.318L117.32 814.079L110.675 802.092L117.734 790.343L131.438 790.582L138.083 802.57L131.024 814.318Z" fill="#FF7272" fill-opacity="0.45"/>
<path d="M446.946 379.906L453.584 361.669L466.059 376.536L446.946 379.906Z" fill="#FF7272" fill-opacity="0.45"/>
<path d="M820.295 315.338L810.945 307.493L813.064 295.473L824.534 291.299L833.884 299.144L831.764 311.164L820.295 315.338Z" fill="#404466"/>
<path d="M56.3531 525.738L57.1936 535.345L48.3163 539.114L41.9894 531.835L46.9563 523.569L56.3531 525.738Z" fill="#FF7272" fill-opacity="0.75"/>
<path d="M1286.1 223.627L1284.03 199.977L1305.54 210.01L1286.1 223.627Z" fill="#404466" fill-opacity="0.65"/>
<path d="M693.615 1014.17L700.85 1006.94L709.967 1011.58L708.366 1021.69L698.26 1023.29L693.615 1014.17Z" fill="#814E6E" fill-opacity="0.9"/>
<path d="M677.028 1067.96L660.938 1078.81L659.584 1059.45L677.028 1067.96Z" fill="#D36234" fill-opacity="0.6"/>
<path d="M1476.45 744.028L1483.65 753.252L1479.27 764.105L1467.68 765.734L1460.47 756.51L1464.86 745.657L1476.45 744.028Z" fill="#D4975E" fill-opacity="0.65"/>
<path d="M230.058 795.269L240.028 797.57L240.92 807.763L231.501 811.761L224.788 804.039L230.058 795.269Z" fill="#FF7272" fill-opacity="0.45"/>
<path d="M1378.76 971.965L1384.75 990.4L1366.32 996.39L1360.33 977.955L1378.76 971.965Z" fill="#404466" fill-opacity="0.9"/>
<path d="M842.517 392.278L853.406 410.399L832.268 410.768L842.517 392.278Z" fill="#D4975E" fill-opacity="0.35"/>
<path d="M392.221 979.648L403.428 976.645L406.43 987.851L395.224 990.854L392.221 979.648Z" fill="#FF7272"/>
<path d="M1147.36 1020.5L1134.28 1014.95L1132.55 1000.85L1143.9 992.297L1156.97 997.848L1158.7 1011.95L1147.36 1020.5Z" fill="#814E6E" fill-opacity="0.6"/>
<path d="M1275.87 791.268L1286.64 797.236L1280.67 808.002L1269.91 802.034L1275.87 791.268Z" fill="#FF7272"/>
<path d="M1298.66 375.766L1302.74 386.417L1293.88 393.596L1284.31 387.383L1287.26 376.364L1298.66 375.766Z" fill="#404466" fill-opacity="0.9"/>
<path d="M72.75 763.334L63.334 777.833L46.6346 773.359L45.7298 756.094L61.87 749.898L72.75 763.334Z" fill="#FF7272" fill-opacity="0.75"/>
<path d="M462.243 904.967L467.761 909.597L466.51 916.69L459.741 919.154L454.223 914.524L455.474 907.43L462.243 904.967Z" fill="#FF7272" fill-opacity="0.75"/>
<path d="M1066.2 930.029L1072.36 918.917L1085.06 918.695L1091.6 929.586L1085.44 940.698L1072.74 940.92L1066.2 930.029Z" fill="#814E6E" fill-opacity="0.85"/>
<path d="M1134.17 916.453L1148.7 918.754L1153.97 932.484L1144.71 943.913L1130.19 941.612L1124.92 927.882L1134.17 916.453Z" fill="#D36234" fill-opacity="0.85"/>
<path d="M76.8108 699.918L77.0285 687.444L87.7228 693.869L76.8108 699.918Z" fill="#D4975E" fill-opacity="0.9"/>
<path d="M873.22 349.216L882.633 360.045L875.244 372.344L861.263 369.116L860.012 354.823L873.22 349.216Z" fill="#404466" fill-opacity="0.35"/>
<path d="M385.125 786.226L387.119 778.786L394.56 776.792L400.007 782.239L398.013 789.68L390.572 791.674L385.125 786.226Z" fill="#FF7272" fill-opacity="0.45"/>
<path d="M895.67 586.809L885.637 592.838L875.4 587.163L875.195 575.46L885.229 569.431L895.466 575.106L895.67 586.809Z" fill="#404466" fill-opacity="0.9"/>
<path d="M1379.9 695.071L1360.8 688.862L1367 669.755L1386.11 675.963L1379.9 695.071Z" fill="#D4975E"/>
<path d="M1332.72 346.4L1350.99 342.517L1354.87 360.785L1336.61 364.668L1332.72 346.4Z" fill="#D36234" fill-opacity="0.65"/>
<path d="M780.096 204.703L790.611 199.8L795.514 210.314L784.999 215.217L780.096 204.703Z" fill="#D36234" fill-opacity="0.75"/>
<path d="M666.237 661.911L677.936 656.205L683.642 667.904L671.943 673.61L666.237 661.911Z" fill="#D36234"/>
<path d="M1155.34 475.542L1145.02 485.509L1132.35 478.773L1134.84 464.643L1149.05 462.646L1155.34 475.542Z" fill="#D4975E" fill-opacity="0.85"/>
<path d="M898.377 295.179L904.684 296.299L906.007 290.032L908.191 296.054L914.28 294.067L910.157 298.969L914.922 303.249L908.615 302.129L907.292 308.396L905.108 302.374L899.019 304.361L903.142 299.459L898.377 295.179Z" fill="#814E6E"/>
<path d="M1464.58 513L1474.28 511.062L1479.12 502.439L1481.06 512.135L1489.68 516.975L1479.98 518.914L1475.14 527.537L1473.2 517.84L1464.58 513Z" fill="#404466" fill-opacity="0.85"/>
<path d="M524.213 1071.39L518.76 1070.13L515.877 1074.93L515.39 1069.35L509.936 1068.09L515.088 1065.91L514.6 1060.33L518.272 1064.56L523.424 1062.37L520.542 1067.17L524.213 1071.39Z" fill="#814E6E" fill-opacity="0.65"/>
<path d="M1309.94 1039.53L1301.89 1044.75L1304.38 1054.02L1296.92 1047.98L1288.87 1053.21L1292.31 1044.25L1284.86 1038.21L1294.44 1038.71L1297.88 1029.76L1300.36 1039.02L1309.94 1039.53Z" fill="#404466" fill-opacity="0.9"/>
<path d="M939.084 219.995L938.64 224.988L943.617 225.593L939.071 227.706L941.035 232.318L936.933 229.437L933.921 233.445L934.364 228.451L929.388 227.847L933.934 225.734L931.969 221.122L936.072 224.002L939.084 219.995Z" fill="#FF7272" fill-opacity="0.75"/>
<path d="M313.725 265.626L309.7 272.305L316.246 276.544L308.449 276.398L308.051 284.186L304.279 277.361L297.335 280.91L301.36 274.231L294.815 269.992L302.611 270.138L303.01 262.35L306.782 269.175L313.725 265.626Z" fill="#D36234" fill-opacity="0.35"/>
<path d="M1414.04 669.036L1414.8 677.845L1423.63 677.371L1416.38 682.434L1421.2 689.844L1413.19 686.097L1409.19 693.98L1408.43 685.171L1399.6 685.645L1406.85 680.582L1402.02 673.172L1410.03 676.919L1414.04 669.036Z" fill="#814E6E" fill-opacity="0.85"/>
<path d="M468.229 432.104L469.389 439.427L476.712 440.586L470.106 443.952L471.265 451.275L466.023 446.033L459.417 449.398L462.783 442.793L457.54 437.55L464.863 438.71L468.229 432.104Z" fill="#D36234" fill-opacity="0.85"/>
<path d="M304.147 1024.73L313.271 1023.62L312.458 1014.47L317.98 1021.82L325.501 1016.53L321.9 1024.99L330.234 1028.86L321.111 1029.97L321.923 1039.13L316.402 1031.78L308.88 1037.06L312.481 1028.61L304.147 1024.73Z" fill="#814E6E" fill-opacity="0.45"/>
<path d="M1213.7 362.913L1207.47 353.78L1196.48 352.566L1205.62 346.334L1206.83 335.345L1213.06 344.478L1224.05 345.692L1214.92 351.924L1213.7 362.913Z" fill="#404466" fill-opacity="0.35"/>
<path d="M626.017 279.445L618.415 274.878L611.723 280.696L613.718 272.055L606.117 267.488L614.951 266.715L616.945 258.075L620.41 266.237L629.244 265.464L622.552 271.282L626.017 279.445Z" fill="#404466" fill-opacity="0.85"/>
<path d="M539.73 802.351L546.492 801.961L550.598 796.573L550.989 803.335L556.377 807.441L549.614 807.832L545.508 813.22L545.118 806.457L539.73 802.351Z" fill="#FF7272" fill-opacity="0.9"/>
<path d="M682.308 291.219L671.566 288.601L662.587 295.052L665.204 284.31L658.753 275.331L669.495 277.948L678.475 271.497L675.857 282.239L682.308 291.219Z" fill="#404466" fill-opacity="0.85"/>
<path d="M407.703 1023.46L409.268 1015.46L401.328 1013.64L409.034 1011L406.642 1003.21L412.783 1008.56L418.331 1002.6L416.767 1010.59L424.706 1012.41L417.001 1015.06L419.392 1022.84L413.251 1017.49L407.703 1023.46Z" fill="#814E6E" fill-opacity="0.45"/>
<path d="M1110.34 340.677L1115.65 335.308L1115.03 327.781L1120.4 333.092L1127.93 332.474L1122.62 337.843L1123.23 345.371L1117.87 340.059L1110.34 340.677Z" fill="#814E6E" fill-opacity="0.35"/>
<path d="M1455.74 672.772L1455.26 683.038L1462.74 690.088L1452.47 689.605L1445.42 697.084L1445.9 686.817L1438.42 679.768L1448.69 680.251L1455.74 672.772Z" fill="#FF7272" fill-opacity="0.65"/>
<path d="M836.609 794.667L827.736 799.854L825.897 809.966L820.71 801.092L810.599 799.254L819.472 794.067L821.311 783.955L826.497 792.829L836.609 794.667Z" fill="#814E6E" fill-opacity="0.75"/>
<path d="M194.374 431.496L190.332 440.136L198.836 444.455L189.333 445.275L189.844 454.799L184.383 446.979L176.39 452.184L180.432 443.545L171.927 439.225L181.431 438.405L180.919 428.881L186.381 436.701L194.374 431.496Z" fill="#FF7272" fill-opacity="0.65"/>
<path d="M303.086 379.17L307.698 374.237L302.917 369.468L309.495 370.995L311.235 364.47L313.201 370.93L319.722 369.174L315.11 374.108L319.892 378.877L313.313 377.35L311.574 383.875L309.607 377.414L303.086 379.17Z" fill="#404466" fill-opacity="0.75"/>
<path d="M1219.43 904.014L1212.49 894.91L1201.06 894.25L1210.17 887.313L1210.83 875.886L1217.76 884.99L1229.19 885.65L1220.09 892.587L1219.43 904.014Z" fill="#404466" fill-opacity="0.9"/>
<path d="M355.485 651.909L352.583 645.048L345.631 647.726L350.122 641.782L344.326 637.101L351.719 638.019L352.876 630.659L355.778 637.52L362.729 634.842L358.239 640.786L364.034 645.467L356.641 644.55L355.485 651.909Z" fill="#D4975E" fill-opacity="0.85"/>
<path d="M363.839 547.329L357.792 555.154L359.797 564.837L351.972 558.791L342.289 560.795L348.335 552.97L346.331 543.287L354.155 549.333L363.839 547.329Z" fill="#D36234" fill-opacity="0.45"/>
<path d="M718.313 489.995L714.98 494.937L718.65 499.633L712.92 497.991L709.587 502.932L709.379 496.975L703.65 495.332L709.251 493.294L709.043 487.337L712.712 492.034L718.313 489.995Z" fill="#D4975E" fill-opacity="0.75"/>
<path d="M387.906 1012.9L397.407 1014.24L401.613 1005.61L403.279 1015.06L412.78 1016.4L404.309 1020.9L405.975 1030.35L399.073 1023.68L390.602 1028.19L394.808 1019.56L387.906 1012.9Z" fill="#814E6E" fill-opacity="0.6"/>
<path d="M229.13 211.492L232.919 204.676L226.23 200.668L234.027 200.542L234.153 192.745L238.161 199.434L244.976 195.645L241.187 202.461L247.876 206.469L240.079 206.595L239.953 214.392L235.945 207.703L229.13 211.492Z" fill="#FF7272" fill-opacity="0.9"/>
<path d="M335.438 797.864L334.514 792.584L329.206 793.336L333.317 789.896L330.011 785.675L335.047 787.515L337.049 782.542L337.973 787.823L343.281 787.07L339.17 790.511L342.476 794.731L337.44 792.891L335.438 797.864Z" fill="#D4975E" fill-opacity="0.9"/>
<path d="M678.793 812.335L688.018 815.89L691.87 806.784L693.404 816.551L703.216 815.334L695.525 821.546L701.484 829.434L692.259 825.879L688.407 834.985L686.873 825.218L677.062 826.435L684.753 820.223L678.793 812.335Z" fill="#D4975E" fill-opacity="0.6"/>
<path d="M1467.13 269.629L1457.91 272.273L1457.58 281.862L1452.21 273.908L1442.99 276.552L1448.89 268.992L1443.53 261.038L1452.55 264.319L1458.45 256.758L1458.12 266.347L1467.13 269.629Z" fill="#D36234" fill-opacity="0.6"/>
<path d="M89.0381 323.212L82.7922 322.223L79.9213 327.857L78.9321 321.611L72.6862 320.622L78.3207 317.751L77.3314 311.505L81.803 315.977L87.4374 313.106L84.5665 318.741L89.0381 323.212Z" fill="#D4975E" fill-opacity="0.75"/>
<path d="M567.875 712.955L570.984 719.838L578.232 721.959L571.349 725.068L569.229 732.317L566.12 725.433L558.871 723.313L565.754 720.204L567.875 712.955Z" fill="#D36234" fill-opacity="0.9"/>
<path d="M144.061 257.269L134.619 258.312L129.265 266.159L128.222 256.717L120.375 251.363L129.817 250.32L135.17 242.473L136.214 251.915L144.061 257.269Z" fill="#814E6E" fill-opacity="0.6"/>
<path d="M359.567 732.449L368.488 730.236L366.566 721.249L372.941 727.868L379.763 721.71L377.219 730.541L385.963 733.37L377.043 735.582L378.965 744.569L372.589 737.95L365.767 744.109L368.312 735.277L359.567 732.449Z" fill="#404466" fill-opacity="0.6"/>
<path d="M1441.54 933.77L1431.5 929.151L1421.45 933.77L1426.07 923.725L1421.45 913.679L1431.5 918.298L1441.54 913.679L1436.92 923.725L1441.54 933.77Z" fill="#D36234" fill-opacity="0.65"/>
<path d="M685.887 772.26L685.667 765.94L679.588 764.197L685.53 762.034L685.31 755.714L689.203 760.697L695.145 758.535L691.609 763.777L695.502 768.76L689.424 767.017L685.887 772.26Z" fill="#FF7272" fill-opacity="0.85"/>
<path d="M368.872 949.211L366.701 955.628L370.159 961.453L363.742 959.281L357.917 962.739L360.088 956.323L356.63 950.498L363.047 952.669L368.872 949.211Z" fill="#D36234" fill-opacity="0.9"/>
<path d="M149.314 943.733L146.697 934.561L137.445 936.88L144.079 930.027L137.445 923.174L146.697 925.494L149.314 916.321L151.932 925.494L161.184 923.174L154.55 930.027L161.184 936.88L151.932 934.561L149.314 943.733Z" fill="#D36234"/>
<path d="M557.404 354.891L546.773 354.018L539.19 361.52L540.063 350.889L532.56 343.306L543.192 344.179L550.775 336.676L549.902 347.308L557.404 354.891Z" fill="#D36234" fill-opacity="0.35"/>
<path d="M1193.75 876.01L1187.41 875.266L1182.72 879.595L1183.46 873.254L1179.13 868.561L1185.47 869.305L1190.17 864.976L1189.42 871.317L1193.75 876.01Z" fill="#D4975E" fill-opacity="0.45"/>
<path d="M936.763 996.426L931.869 986.948L921.489 984.493L930.967 979.599L933.422 969.218L938.316 978.697L948.696 981.152L939.218 986.045L936.763 996.426Z" fill="#814E6E" fill-opacity="0.9"/>
<path d="M521.003 62.7698L514.502 57.8705L507.833 62.5399L510.484 54.8426L503.982 49.9433L512.122 50.0854L514.772 42.3881L517.152 50.1732L525.292 50.3153L518.623 54.9847L521.003 62.7698Z" fill="#814E6E" fill-opacity="0.6"/>
<path d="M607.544 204.224L604.768 196.566L597.024 199.093L602.268 192.859L596.207 187.416L604.228 188.841L605.911 180.871L608.688 188.529L616.432 186.002L611.188 192.236L617.248 197.679L609.228 196.254L607.544 204.224Z" fill="#D4975E" fill-opacity="0.35"/>
<path d="M1151.6 990.436L1158.98 991.211L1161.99 984.438L1163.53 991.69L1170.91 992.465L1164.49 996.172L1166.03 1003.42L1160.52 998.463L1154.1 1002.17L1157.11 995.397L1151.6 990.436Z" fill="#FF7272" fill-opacity="0.35"/>
<path d="M790.707 607.939L790.508 599.221L783.76 593.697L792.479 593.498L798.003 586.75L798.201 595.469L804.949 600.993L796.231 601.192L790.707 607.939Z" fill="#D4975E" fill-opacity="0.65"/>
</svg>
